<svg xmlns="http://www.w3.org/2000/svg" viewBox="0 0 338 184"><defs><style>.cls-1{fill:none;}.cls-2{font-size:30.4px;font-weight:600;letter-spacing:-0.01em;}.cls-12,.cls-13,.cls-14,.cls-15,.cls-16,.cls-2{font-family:MontserratAlternates-SemiBold, Montserrat Alternates;}.cls-3{letter-spacing:0em;}.cls-4{letter-spacing:0em;}.cls-5{letter-spacing:0em;}.cls-6{letter-spacing:-0.01em;}.cls-7{letter-spacing:0.02em;}.cls-8{letter-spacing:0.01em;}.cls-9{font-size:26px;font-family:MontserratAlternates-SemiBoldItalic, Montserrat Alternates;font-style:italic;letter-spacing:-0.02em;}.cls-10{letter-spacing:-0.01em;}.cls-11{letter-spacing:0em;}.cls-12,.cls-13,.cls-14,.cls-15,.cls-16{font-size:32px;font-style:normal;}.cls-12{letter-spacing:0.02em;}.cls-13{letter-spacing:-0.01em;}.cls-14{letter-spacing:0em;}.cls-15{letter-spacing:-0.01em;}.cls-16{letter-spacing:0.01em;}.cls-17{font-size:30px;letter-spacing:-0.02em;}.cls-18{letter-spacing:0em;}.cls-19{letter-spacing:-0.01em;}.cls-20{letter-spacing:-0.01em;}.cls-21{letter-spacing:-0.01em;}.cls-22{letter-spacing:-0.01em;}.cls-23{letter-spacing:0.01em;}</style></defs><g id="Layer_2" data-name="Layer 2"><g id="color_on_final" data-name="color on final"><rect class="cls-1" width="338" height="184"/><path d="M71.09,108c-2.36,3.92-4.62,7.59.55,12.55C72.45,117.19,74.44,110.81,71.09,108Z"/><path d="M119.39,52.59c3.93-5.83,3.07-7.78,2.45-8.7-3.74-5.56-16-4.58-24.09-3.36C92.73,35.93,86.51,22,78.17,22c-7.12,0-3.25,5.73-3.32,7.55S68.75,38.41,65,40.84C61.88,42.82,53.59,46.06,51,48c-3.28,2.48-3.36,8.12-5.53,12.32-2.23-2.38-7.79-3.8-8.61-4.73a5,5,0,0,1,.79-1.73c1.45-2.13-.33-4-1.33-4.7a3.38,3.38,0,0,0-3.83-.45c-12.22,8.49-6,18.33-5.33,19.69-2.92,7,4.5,8.26,6.16,9.23,3.21,1.87,3.32,2.81,4,4.19,2.93,5.8,7.33,6.69,12.46,18.23-.26-1.89-.42-3.42-.44-4.17A38,38,0,0,0,42,83.94c-1.43-2-2-5.15-4.44-7.48-2.85-2.73-6.67-3.45-7.14-4.77-.33-1,1.06-1.82,1.06-3.47,0-1-1.37-2.47-2.1-5.21-.95-3.56,1.3-6.71,3.51-9-1.06,3.38,1.21,5.34,4.89,6.64,6.58,2.31,5.64,5.55,8,4.82,4.74-1.47,5.4-11.58,7.6-14.12,4.14-2.65,12.89-5.49,17.27-9.73,10.63-10.28,8.49-12.8,7.78-14.93,7,0,13.18,16.58,18.41,17.9,2.53.63,15.75-3.05,21.44,1.3-1.11,4-4,5.52-3.69,7.55s2.52,1.3,4.33,4.29c-9.41-.87-15.86,3.1-18.09,5.07a6.88,6.88,0,0,1,1.8,1.27c2.36-1.44,7.35-4.27,12.83-3.54a23,23,0,0,0,4.29.45,2.79,2.79,0,0,0,2.64-2C122.93,57.05,121.71,54.7,119.39,52.59ZM75.14,29.51s0,0,0,0Z"/><path d="M77.15,131.55c1.11-3.14,4.95-11.7-2.68-16.47-.56,4.91-1.48,5.38-1.73,9A8,8,0,0,0,77.15,131.55Z"/><path d="M72.12,128.13a55.32,55.32,0,0,1-6.19-2.38c-1.82,13.07,13.56,11.05,13.9,11.06C77.62,131.77,74.79,133.47,72.12,128.13Z"/><path d="M80.66,125.91a42.15,42.15,0,0,1-2.5,6.25c4.77,4.83,2.64,5.7,7.53,7.8C86,137.72,88.12,128.77,80.66,125.91Z"/><path d="M89.39,144.68c-2.1-3.86-5-2.52-9-6.7a31.26,31.26,0,0,1-7.07.22C75.52,147.72,85.42,145.31,89.39,144.68Z"/><path d="M87.78,134a26.11,26.11,0,0,1-1,6.35c6,3.76,3.29,5,8.5,6.1C95.35,138.79,93.89,135,87.78,134Z"/><path d="M90,145.67a25.69,25.69,0,0,1-5.64,1.41c4.18,8.1,13.43,4.26,15.77,3.87C96.26,146.91,94.8,149.11,90,145.67Z"/><path d="M111.49,157.2a10.31,10.31,0,0,1-3.42,1c3.89,3.51,6.83,3.53,7.5,3.13C114.39,160,112.28,158,111.49,157.2Z"/><path d="M96.83,141.36a18.16,18.16,0,0,1-.36,5.37c4.84,2.1,4.87,4.91,9.69,5.7C106.12,152.19,106.56,142.28,96.83,141.36Z"/><path d="M110.4,156.19c-2.71-2.74-3.79-1.26-9.33-4.19a36.94,36.94,0,0,1-4.75,1.37C101,159.14,109.91,156.25,110.4,156.19Z"/><path d="M107.2,148.57a18.63,18.63,0,0,1,.17,4.2c3.72,1.65,8.7,7,10.13,9.23a2.46,2.46,0,0,0,.15-1.54C117.21,158.29,113,149.77,107.2,148.57Z"/><path d="M132.9,128.68a2.08,2.08,0,0,0-.19-1.7c-2.4-3.38-5.1-9-7.75-13.57a2,2,0,0,0-2.26-.9c-.53.14-2.3.59-2.82.22-1-2.7,1.35-11.7-1-12.25-3.23-.75-3.25,2.18-5,3.71a16.19,16.19,0,0,1-.48,2.88c.28-.22,2.14-1.31,2.4-1.55.14,2.14-2.63,12.88,6.49,11.24,2.12,3.7,4,7.79,6.54,11.64-4.14,13.79-2,20.08-7.14,29a12.55,12.55,0,0,0-1.25,3,2.27,2.27,0,0,0,.15,1.54c1.43-2.22,5.66-6.46,7.62-12.7C130.07,143.24,128.86,140.68,132.9,128.68Z"/><path d="M110,89.76c-.46-2.29-.29-6.15-.65-7.57-.14-.53-.67-1.74-1.11-3.07-1.9-5.79-5.61-16.48-23.36-17.16A28.55,28.55,0,0,0,61.79,72c-11,12.89-10.15,30.92-4,39.49A5.82,5.82,0,0,1,60,109.31C55.78,122,71,125.91,71.55,126.19a12.16,12.16,0,0,1-.17-4.27c-5.12-3.87-5.79-8.21-1.93-14.62.29-.4.65-.89,1-1.39-7-2.07-8.17-8-7.16-11.18a5.59,5.59,0,0,1,2.43-3.33c2.46-1.43,4.54.81,5.15.46,2.18-1.26,4.89-16.62,15.8-22.39,3.6-1.9,11-1.55,14.91,1.19,5.46,3.84,6.36,15.17,7.43,19.47,1,4.13-.14,22.41-3.19,26a5.92,5.92,0,0,1-2.34,1.77c-4,1.57-11.07,2.19-10.39,14.92a6.33,6.33,0,0,0,2.85,2c.55,0-3-11.9,7.75-15.81a6.58,6.58,0,0,0,3-1.75C109.45,113.93,112.17,100.17,110,89.76Z"/><path d="M104.76,98.43a1.67,1.67,0,0,1-1.06,0,5.88,5.88,0,0,0,2-4.3c-.06-1.13-5.19-5.6-5.4-6.08a13.64,13.64,0,0,1-.28-4c0-.17.42-.18.77,0a17.45,17.45,0,0,0,.48,3.6c.15.33,5.6,4.82,5.67,6.41A5.73,5.73,0,0,1,104.76,98.43Z"/><path d="M93.88,119c-11.09-1.45-17.59-3.43-20-7.74.29-.37.93-.72,1.07-1.15,1.82,3.15,8.62,6.91,20.63,8.23A4.84,4.84,0,0,0,93.88,119Z"/><text class="cls-2" transform="translate(154.3 69.94)">M<tspan class="cls-3" x="36.92" y="0">U</tspan><tspan class="cls-4" x="61.18" y="0">J</tspan><tspan class="cls-5" x="77.12" y="0">E</tspan><tspan class="cls-6" x="96.93" y="0">R</tspan><tspan class="cls-7" x="118.99" y="0">E</tspan><tspan class="cls-8" x="139.47" y="0">S</tspan><tspan class="cls-9"><tspan x="0" y="30.5">d</tspan><tspan class="cls-10" x="18.67" y="30.5">e</tspan><tspan class="cls-11" x="34.3" y="30.5">l </tspan><tspan class="cls-12" x="50.47" y="32">L</tspan><tspan class="cls-13" x="70.21" y="32">I</tspan><tspan class="cls-14" x="84.91" y="32">B</tspan><tspan class="cls-15" x="109.15" y="32">R</tspan><tspan class="cls-16" x="132.3" y="32">O</tspan></tspan><tspan class="cls-17"><tspan x="0" y="62">P</tspan><tspan class="cls-18" x="21.23" y="62">E</tspan><tspan class="cls-19" x="40.79" y="62">R</tspan><tspan class="cls-20" x="62.42" y="62">U</tspan><tspan class="cls-21" x="85.96" y="62">A</tspan><tspan class="cls-22" x="109.62" y="62">N</tspan><tspan class="cls-23" x="133.38" y="62">O</tspan></tspan></text></g></g></svg>