<svg xmlns="http://www.w3.org/2000/svg" viewBox="0 0 730.21 246.66"><defs><style>.cls-1{font-size:42.76px;font-family:DINPro-Regular, DINPro;}.cls-1,.cls-10,.cls-16,.cls-22{fill:#fff;}.cls-2{letter-spacing:-0.03em;}.cls-3{letter-spacing:-0.01em;}.cls-4{letter-spacing:-0.01em;}.cls-5{letter-spacing:-0.01em;}.cls-6{letter-spacing:-0.02em;}.cls-7{letter-spacing:-0.01em;}.cls-8{letter-spacing:-0.02em;}.cls-9{letter-spacing:-0.01em;}.cls-11{fill:#ed1c24;}.cls-12{fill:#58595b;}.cls-13,.cls-14,.cls-15,.cls-16,.cls-17,.cls-18,.cls-19,.cls-20,.cls-21,.cls-22,.cls-23,.cls-24,.cls-25,.cls-26,.cls-27,.cls-28,.cls-29,.cls-30,.cls-31,.cls-32,.cls-33,.cls-34,.cls-35,.cls-36,.cls-37,.cls-38,.cls-39,.cls-40,.cls-41,.cls-42,.cls-43,.cls-44,.cls-45,.cls-46{fill-rule:evenodd;}.cls-14,.cls-17,.cls-21,.cls-24,.cls-26,.cls-27{fill:#da2128;}.cls-14,.cls-15,.cls-16,.cls-17,.cls-18,.cls-21,.cls-23,.cls-24,.cls-26,.cls-28{stroke:#1d0000;}.cls-15,.cls-19{fill:#420125;}.cls-15,.cls-18,.cls-24{stroke-width:0.36px;}.cls-16,.cls-17,.cls-23{stroke-width:0.5px;}.cls-18,.cls-23,.cls-25,.cls-28,.cls-32,.cls-36,.cls-40{fill:none;}.cls-20{fill:#231f20;}.cls-21,.cls-32{stroke-linecap:round;}.cls-21,.cls-32,.cls-40{stroke-linejoin:round;}.cls-21,.cls-26,.cls-28{stroke-width:0.7px;}.cls-29{fill:#16532a;}.cls-30{fill:#88bce6;}.cls-31{fill:#fed52e;}.cls-32{stroke:#420125;stroke-width:0.2px;}.cls-33{fill:#8f8480;}.cls-34{fill:#bd9870;}.cls-35{fill:#985623;}.cls-36,.cls-40{stroke:#5f3512;stroke-width:0.25px;}.cls-37{fill:#ca6a3e;}.cls-38{fill:#5f3512;}.cls-39{fill:#b0683b;}.cls-41{fill:#603335;}.cls-42,.cls-48{fill:#f4ce36;}.cls-43{fill:#43b649;}.cls-44,.cls-45{fill:#187a44;}.cls-44{stroke:#000;stroke-width:0.35px;}.cls-46{fill:#62bb46;}.cls-47{fill:#1a1000;}</style></defs><g id="Layer_2" data-name="Layer 2"><g id="Capa_3" data-name="Capa 3"><text class="cls-1" transform="translate(70.3 36.6)">P<tspan class="cls-2" x="26.94" y="0">r</tspan><tspan class="cls-3" x="43.48" y="0">oy</tspan><tspan x="84.4" y="0">ec</tspan><tspan class="cls-4" x="128.02" y="0">t</tspan><tspan x="141.87" y="0">o ganador de E</tspan><tspan class="cls-5" x="424.28" y="0">s</tspan><tspan x="445.06" y="0">tímu</tspan><tspan class="cls-6" x="531.69" y="0">l</tspan><tspan x="543.53" y="0">os </tspan><tspan x="-17.83" y="39">E</tspan><tspan class="cls-7" x="7.83" y="39">c</tspan><tspan x="28.14" y="39">onómi</tspan><tspan class="cls-8" x="145.89" y="39">c</tspan><tspan x="166.2" y="39">os pa</tspan><tspan class="cls-3" x="266.51" y="39">r</tspan><tspan x="284.08" y="39">a la Cultu</tspan><tspan class="cls-9" x="465.24" y="39">r</tspan><tspan x="482.82" y="39">a 2021</tspan></text><rect class="cls-10" y="92.22" width="730.21" height="154.41"/><rect class="cls-10" x="6.47" y="98.66" width="283.47" height="141.73"/><rect class="cls-11" x="148.2" y="98.66" width="141.73" height="141.73"/><rect class="cls-12" x="298.55" y="98.66" width="425.2" height="141.73"/><path class="cls-13" d="M80.31,215.42l24-55,19.24-15.27-.71,54.24C122.4,210,110.49,227.81,80.31,215.42Z"/><path class="cls-14" d="M78.71,214.49l24.55-54.15,20.2-15.8-.72,54C122.58,210.49,109.16,228.35,78.71,214.49Z"/><path class="cls-13" d="M114.44,151.92l9.83-7.33-.13-.45c0-.08-5.58,4.3-10.07,7.38C113.89,151.64,114.35,151.53,114.44,151.92Z"/><path class="cls-15" d="M114.44,151.92l9.83-7.33-.13-.45s-5.58,4.3-10.07,7.38C113.89,151.64,114.35,151.53,114.44,151.92Z"/><path class="cls-16" d="M122.63,177.65c-1.31,1.14-3.78.47-4.06,2.56-.15,1.15-1.78,1.1-2.26,2-1.22,2.41-3.31,1.43-4,2.25-1,1.25-2.78,2.45-4.24,2.14-1.65-.35-3.35,1.34-4.91,2.35-2.78,1.82-5.42,1.06-5.42,7.37,0,2.48-.17,5.63.64,6.77,1.64,2.25,4.65,2,7.77,2.65.58.12,3.28-2.54,5.8-1.81,1.11.32,2.38-.46,3.64-.21,1.6.31,3.27.16,4-1.36.86-1.78,2.65-1.92,2.65-2.67C122.29,194.79,122.59,182.27,122.63,177.65Z"/><path class="cls-17" d="M99.93,181.05c-.18-11.48-2.69-23.66-1.23-28.45,6.18-4.11,10.44-7,14.36-10.53.49-.43,5.89,23.08,7.51,27.48C118.66,175.16,109.13,173.08,99.93,181.05Z"/><path class="cls-18" d="M99.64,181.31c-.18-11.48-2.4-23.92-.94-28.71a112,112,0,0,0,14.08-10.54"/><path class="cls-16" d="M104.36,158.26c.82-.33,2.72-2.18,3.62-2.58,2-.94,6.16-4.59,7.09-3.72.91,2.21.88,4.4,1.92,6.34.19,1-.19.94-1,1.31-1.41.65-2,1.41-3.54,1.6-3.82.48-5.9,3.39-7.89,2.51-.8-.35-.44-3.1-1.37-3.55C101.81,159.5,103.78,159.05,104.36,158.26Z"/><path class="cls-19" d="M99.38,152.6l14-10.46-.2-.64c0-.11-8,6.14-14.35,10.52C98.57,152.2,99.23,152.05,99.38,152.6Z"/><path class="cls-20" d="M99.38,152.6l14-10.46-.2-.64s-8,6.14-14.35,10.52C98.57,152.2,99.23,152.05,99.38,152.6Z"/><path class="cls-21" d="M113.27,141.85c-2.27,6.58-2.67,19-4.62,25.6a10.87,10.87,0,0,1,7.1-2c3.4.07,4,1.94,4,1.94C116,154.41,115.25,146.41,113.27,141.85Z"/><path class="cls-22" d="M117.6,159.28c-2.12-3.15-7.08-1.77-7.07-2,.09-1.41.45-3.42.6-4.69.06-.57,3.94-.21,5.12.84Z"/><path class="cls-23" d="M117.6,159.28c-2.12-3.15-7.07-1.77-7.07-2,.09-1.41.45-3.42.6-4.69.06-.57,3.94-.21,5.12.84Z"/><path class="cls-13" d="M79.38,215.42l-24.06-55L36.08,145.12l.72,54.24C37.28,210,49.2,227.81,79.38,215.42Z"/><path class="cls-14" d="M81,214.49,56.43,160.34l-20.2-15.8.71,54C37.11,210.49,50.53,228.35,81,214.49Z"/><path class="cls-13" d="M45.24,151.92l-9.81-7.33.13-.45c0-.08,5.57,4.3,10.06,7.38C45.81,151.64,45.35,151.53,45.24,151.92Z"/><path class="cls-15" d="M45.24,151.92l-9.81-7.33.13-.45s5.57,4.3,10.06,7.38C45.81,151.64,45.35,151.53,45.24,151.92Z"/><path class="cls-16" d="M37.06,177.66c1.31,1.13,3.78.46,4,2.55.16,1.15,1.79,1.1,2.27,2,1.22,2.41,3.31,1.43,3.95,2.25,1,1.25,2.78,2.45,4.24,2.14,1.65-.35,3.34,1.34,4.91,2.35,2.77,1.82,5.43,1.06,5.43,7.37,0,2.48.16,5.63-.65,6.77-1.64,2.25-4.66,2-7.77,2.65-.59.13-3.29-2.54-5.81-1.81-1.1.32-2.36-.46-3.63-.21-1.59.31-3.28.16-4-1.36-.87-1.78-2.65-1.92-2.65-2.67C37.4,194.79,37.1,182.27,37.06,177.66Z"/><path class="cls-24" d="M60.06,181.43c.17-11.48,2.4-24,.94-28.83a112.43,112.43,0,0,1-14.1-10.54c-.48-.44-6.79,22.94-8.34,27.35C40.47,175,50.85,173.46,60.06,181.43Z"/><path class="cls-16" d="M55.32,158.26c-.81-.33-2.71-2.18-3.6-2.58-2-.94-6.16-4.59-7.1-3.72-1.77,1.66-2.1,4.18-2.47,6.26-.19,1,.74,1,1.54,1.39,1.41.65,2,1.41,3.54,1.6,3.82.48,5.9,3.39,7.89,2.51.81-.35.44-3.1,1.37-3.55C57.89,159.5,55.9,159.05,55.32,158.26Z"/><path class="cls-20" d="M60.31,152.6l-14-10.46.19-.64c0-.11,7.95,6.14,14.37,10.52C61.11,152.2,60.47,152.05,60.31,152.6Z"/><path class="cls-25" d="M60.31,152.6l-14-10.46.19-.64s7.95,6.14,14.37,10.52C61.11,152.2,60.47,152.05,60.31,152.6Z"/><path class="cls-18" d="M46.42,141.85c2.27,6.58,2.24,18,4.2,24.63,0,0-3.37-3.67-9.58-1.75a4.65,4.65,0,0,0-1.32,1.11C43.42,152.87,44.44,146.41,46.42,141.85Z"/><path class="cls-26" d="M46.42,141.85c2.27,6.58,2.39,19,4.34,25.65a24.5,24.5,0,0,0-6-2c-4.18-.22-5.32,1.72-5.32,1.72C43.13,154.3,44.44,146.41,46.42,141.85Z"/><path class="cls-22" d="M48.36,152.43c.15,1.29.45,3.31.55,4.74,0,.23-5.2-1.17-7.32,2,.72-2.68,1.13-4.11,1.2-4.52a12.63,12.63,0,0,1,.41-1.56C44.38,152,48.29,151.87,48.36,152.43Z"/><path class="cls-23" d="M48.36,152.43c.15,1.29.45,3.31.55,4.74,0,.23-5.2-1.17-7.32,2,.72-2.68,1.13-4.11,1.2-4.52a12.63,12.63,0,0,1,.41-1.56C44.38,152,48.29,151.87,48.36,152.43Z"/><path class="cls-25" d="M79.82,218.76c.64-.81,1.64-2-.3-2.34-1.32.49-.25,1.62.3,2.34Z"/><path class="cls-27" d="M77.47,211c0,.86-1.76,3.67-3,6.64-.13.31-.33.68-.13,1,1.21,1.65-1,2.54-.85,2.88s-.35.38-.44.72c-.22.81.7.65,1.45.63s-1.26,3-1,3c2.44-.66,5.9-.15,6-2.46,0-1-1.33-1.55-1.17-2.35,0-.12.66.1,1.2-.05a.79.79,0,0,0,.59-.82,3.23,3.23,0,0,0-.06-.66c-.12-.65-2.69-2.58.27-2.94.22,0,1.06.35,1.06.16-.11-1.85-2.47-4.8-2.42-6.64,0-.68.21-.71-.41.08C78.51,210.24,78,211.12,77.47,211Z"/><path class="cls-28" d="M77.47,211c0,.86-1.76,3.67-3,6.64-.13.31-.33.68-.13,1,1.21,1.65-1,2.54-.85,2.88s-.35.38-.44.72c-.22.81.7.65,1.45.63s-1.26,3-1,3c2.44-.66,5.9-.15,6-2.46,0-1-1.33-1.55-1.17-2.35a3.37,3.37,0,0,0,1.2-.05c.54-.13.59-.82.59-.82a6,6,0,0,0-.06-.66c-.12-.65-2.69-2.58.27-2.94l1.06.16c-.11-1.85-2.42-4.8-2.42-6.64,0-.68.21-.71-.41.08C78.51,210.24,78,211.12,77.47,211Z"/><path class="cls-28" d="M73.57,225.83c3-.35,5.41-.74,5.82-1.6,1.11-2.32-6.34-.94-6.34-1.48-.12-3.3,6.91-.78,7.11-2.19.37-2.67-5.78-1.06-5.78-1.91.19-3.41,7.44-2,6.68-1.87"/><path class="cls-27" d="M82.1,211.17c0,.87,1.76,3.68,3,6.64.12.31.33.69.12,1-1.2,1.66,1,2.54.86,2.88s.35.38.43.72c.23.81-.69.64-1.44.63s1.26,3,1,3c-2.45-.64-5.91-.15-6-2.45,0-1,1.32-1.56,1.16-2.35,0-.13-.66.09-1.19,0a.8.8,0,0,1-.59-.83,3.23,3.23,0,0,1,.06-.66c.11-.65,2.68-2.59-.27-2.94-.22,0-1.07.35-1.06.16.12-1.85,2.46-4.8,2.42-6.65,0-.67-.21-.7.41.09C81.07,210.37,81.58,211.25,82.1,211.17Z"/><path class="cls-28" d="M82.1,211.17c0,.87,1.76,3.68,3,6.64.12.31.33.69.12,1-1.2,1.66,1,2.54.86,2.88s.35.38.43.72c.23.81-.69.64-1.44.63s1.26,3,1,3c-2.45-.64-5.91-.15-6-2.45,0-1,1.32-1.56,1.16-2.35a3.59,3.59,0,0,1-1.19,0c-.54-.14-.59-.83-.59-.83a6,6,0,0,1,.06-.66c.11-.65,2.68-2.59-.27-2.94l-1.06.16c.12-1.85,2.42-4.8,2.42-6.65,0-.67-.21-.7.41.09C81.07,210.37,81.58,211.25,82.1,211.17Z"/><path class="cls-28" d="M86,226c-3-.34-5.43-.74-5.84-1.6-1.1-2.32,6.35-.94,6.35-1.47.12-3.3-6.91-.8-7.11-2.2-.38-2.67,5.77-1,5.77-1.91-.18-3.4-7.43-2-6.67-1.87"/><path class="cls-29" d="M92.6,165.39c-.19-.54-1.25-.2-1.55-.1v-1.5C91.81,164,92.2,164.8,92.6,165.39Z"/><path class="cls-29" d="M94.8,165.94c-.38-.14-.08-1,.06-1.24C95.68,164.49,94.77,165.64,94.8,165.94Z"/><path class="cls-29" d="M98.28,166.55a1.1,1.1,0,0,0-.16.58l-1.06-.1C97.06,166.35,97.83,166.41,98.28,166.55Z"/><path class="cls-29" d="M95.56,169.1l-.2-.79c0-.44.7-.05,1-.34C96.41,168.26,95.87,169.21,95.56,169.1Z"/><path class="cls-29" d="M89.89,170.11H88.45l.34-1.46A7.08,7.08,0,0,1,89.89,170.11Z"/><path class="cls-29" d="M91.4,170.29c-.05.24.09.54-.14.68-.8,0-.3-1.12-1-1.51C91.06,168.74,91.37,169.75,91.4,170.29Z"/><path class="cls-29" d="M94.16,170.39l.36-.07.81-1.29A4.1,4.1,0,0,1,94.16,170.39Z"/><path class="cls-29" d="M99,167.31c-.1.19.12.61.42,1.09a.8.8,0,0,1-.57-.34,1.85,1.85,0,0,0,.53.87c-.15.06-.31,0-.5-.3v.22c.05.18.16.43.23.61s.21.45.32.71a2.14,2.14,0,0,0,.17-1.88c.22-.19,0-.6-.24-.9.06,0,.23.15.3.17a2.48,2.48,0,0,0-.52-1.32.49.49,0,0,0-.77.19c0,.23-.06.33.38.54S99.14,167.32,99,167.31Z"/><path class="cls-19" d="M108.4,201.3l.07-.25a12.31,12.31,0,0,0,.34-4.36A40.11,40.11,0,0,0,106.13,186a37.89,37.89,0,0,1-2.79-12.7c.43-3.32,1.6-7.84,4.73-10.56l.13-.11-.12-.14c-1.45-1.56-3.06-3.44-4.62-5.26s-3.13-3.65-4.57-5.19l-.11-.12-.13.1a13.42,13.42,0,0,1-8.58,2.91A21.1,21.1,0,0,1,79.9,152l-.09-.05-.08.05a21.2,21.2,0,0,1-10.17,2.89A13.42,13.42,0,0,1,61,152l-.13-.1-.11.12c-1.46,1.55-3.07,3.43-4.62,5.24s-3.13,3.65-4.57,5.19l-.13.14.14.12c3.29,2.87,4.37,7.85,4.72,10.54a37.87,37.87,0,0,1-2.78,12.71,39.35,39.35,0,0,0-2.68,10.73c-.91,9.51,8.57,13.88,9.66,14.35l.1,0h0c4.66,2,9.56,1.2,14.55,1.9a5.23,5.23,0,0,1,.82.11h0a4.1,4.1,0,0,1,.53.16,8.24,8.24,0,0,1,2.89,2.07l.38.38.06,0,0,0c1.13-1.08,2.42-2.53,4.75-2.69,5-.7,9.89.11,14.56-1.91,2.32-1,7.14-3.92,8.93-9C108.24,201.84,108.32,201.57,108.4,201.3Z"/><path class="cls-22" d="M81.08,182.79V155.4c5.42,2.28,11,3.23,16.91,0,2.68,2.89,4.39,4.53,7.07,7.42-2.59,2.53-3.77,7.42-3.82,11.34a31.31,31.31,0,0,0,1.63,8.63Z"/><path class="cls-30" d="M57.35,182.79A24.71,24.71,0,0,0,58.84,174c0-3.37-1.22-9.21-4.06-11.68,2.69-2.89,4-4.51,6.68-7.4,5,4,12.19,2.67,17.32.11V182.8Z"/><path class="cls-31" d="M103.9,184.22H56.3c-1.38,3.54-3,6.68-3.55,11.83-.74,7.85,6.15,12.15,9,13.38,4.39,1.89,9,1.13,13.68,1.79,2.2.14,3.41,1.51,4.47,2.54,1.07-1,2.27-2.38,4.46-2.53,4.68-.66,9.29.11,13.69-1.79,2.84-1.22,9.74-5.52,9-13.37-.49-5.16-1.91-8.31-3.14-11.85Zm-23.31-1h23a24.76,24.76,0,0,1-1.66-9.27c.14-3.4,1.09-8.65,4-11.15-2.72-2.93-5-5.34-7.72-8.27-5.43,3.73-12.35,2.61-17.53-.12v28.81Zm-23.9,0H79.28V154.34c-5.21,2.76-12.66,4.15-17.89,0-2.73,2.93-4.76,5.18-7.48,8.11,2.87,2.5,4.37,8.09,4.38,11.5a26,26,0,0,1-1.6,9.27Zm23.21,32a7.08,7.08,0,0,0-4.7-2.53c-4.92-.69-9.75.11-14.37-1.88-3-1.29-10.24-5.82-9.46-14.06.92-9.7,5-12.62,5.41-23.28-.45-3.55-1.45-8.29-4.47-10.91,2.86-3.09,5.84-6.78,8.71-9.86,5.72,4.57,13.39,3,18.88-.15,5.49,3.14,13.23,4.8,19,.22,2.85,3.08,5.91,6.72,8.77,9.8-3,2.62-4.14,7.36-4.6,10.92.43,10.65,4.48,13.56,5.41,23.28.78,8.24-6.47,12.77-9.47,14.06-4.61,2-9.44,1.18-14.38,1.87a7,7,0,0,0-4.68,2.52Z"/><path class="cls-27" d="M79.9,213.3a6.62,6.62,0,0,0-4.41-2.39c-4.63-.66-9.17.09-13.52-1.78-2.81-1.21-9.47-5.46-8.74-13.22.47-4.91,2.06-8,3.43-11.35,15.68,0,31.16.07,46.89.07,1.19,3.34,2.51,6.39,3,11.3.74,7.75-5.88,12-8.7,13.22-4.34,1.87-8.89,1.11-13.51,1.76A6.71,6.71,0,0,0,79.9,213.3Z"/><path class="cls-19" d="M83.53,188c1.17.41,2.39.89,2.48,1.92a2.63,2.63,0,0,1,2.28,2.1c.92.47,1.43.63,1.49,1.31a1.68,1.68,0,0,1,1.37,1,2.11,2.11,0,0,1,1.93,1.07,1.37,1.37,0,0,1,1.46.27,2,2,0,0,1,1.7,0c.24,0,.48,0,.72-.08a1.73,1.73,0,0,1,1.41-.72.67.67,0,0,1,.37-.85c-.25-.46-.42-.9,0-1.39-.24-.27-.29-.61,0-1.11a.77.77,0,0,1-.3-.89,1.09,1.09,0,0,1-.74-.75c-.68-.13-1-.35-1.15-.63a.84.84,0,0,1-.7.11,1,1,0,0,1-.86.3,1.56,1.56,0,0,1-.89.86c0,.21.07.43.11.62.58-.23,1.2.66.82,1.26s-1.38.79-1.58,0a1.45,1.45,0,0,1-1-.81c-.22-.55-.37-.75,0-1.13-.36-.64-.07-1.2.52-1.63.3-.64.7-1,1.26-.91.36-.43.47-.85,1.41-.74a1.78,1.78,0,0,1,2,0,1.46,1.46,0,0,1,1.52.64c.48.22,1,.37,1.15,1.1.56.32,1.24.53,1,1.47a2.37,2.37,0,0,1,.85,1.89,2.47,2.47,0,0,1,.1,1.73,5.54,5.54,0,0,1-.88,3.94,2.5,2.5,0,0,1-1.78,2c-.74,1.35-1.62,1.67-2.58,1.41a2.42,2.42,0,0,1-2.34.76c-1,.49-2.07.94-2.69.41-1.38.52-2.56.6-3.35-.13-1.49.3-2.5,0-3.07-1a2.25,2.25,0,0,1-2.36-.83c-1.44.61-2.66.7-3.49-.15a1,1,0,0,1-.79.25,2.51,2.51,0,0,1,.22,2.73,2.36,2.36,0,0,1,2.18.58c1.08-.62,2.18-.9,3.28.63,2.2-.83,3-.17,3.5,1.49a1.41,1.41,0,0,1,1.49-.29c.88-1.48,2.29-1,3,.22s-.78,2.79-2.42,2.53a2,2,0,0,1-2.1.36,3.34,3.34,0,0,1-2.79-.28,2.35,2.35,0,0,1-2.64.57c-1.34,2.3-2.65,1.49-4,.72-1,.51-1.8,0-2.64-.52a1.76,1.76,0,0,1-1.68.9,1.68,1.68,0,0,1-1.35-.54,2.6,2.6,0,0,1-3.25-.3,1.82,1.82,0,0,1-2.33-1.2,1.67,1.67,0,0,1-1.1.07c-1.51,1.39-3.59.72-3.62-1.45-.81,0-1.61,0-2.15-1.57-.15-.42,0-.68.18-1.09-1-.6-1.27-1.09-.81-2.51-1-.49-1.42-1.43-.58-2.9-.75-1.54-.93-2.73.63-4.17a5.67,5.67,0,0,1,2.82-1.73c0-1.15.53-2,2.42-2.35a2.84,2.84,0,0,1,3-2.53c.62-1,1.63-1.52,3.54-1.24.49-.85,1.58-1.19,4-.38,1.12-.79,2.44-.66,4,.41C80.34,186.16,82.73,186.93,83.53,188Z"/><path class="cls-31" d="M59.77,198.58l.56-.05c-.49-1.09.24-2.06,1.69-2.11a7.83,7.83,0,0,1,4.9,2.26,15,15,0,0,0,4.82,2.61c1.66.46,3.77.45,5.58,1.2.86.41.71.93.53,1.95A1.74,1.74,0,0,0,79,203c-.1-1.51-1.14-2.75-3.66-3.58A8.88,8.88,0,0,1,69,197.3a8.07,8.07,0,0,0-4.15-3.43,4.3,4.3,0,0,0-3.61.37c-1.7.88-1.87,1.82-1.85,2.73.13.53.25,1.07.38,1.61ZM71.29,198h0c.06-.16-.77-.74-1.33-.79-2.29-1.83-2.1-3.84-6.76-4.18.47-3.05,4.22-1.87,5.59.17,1.6,2.36.86,3.21,2.5,4.8Zm2.68.68h0c.08-.09-1.07-.11-1.73-.55-3-2.27-1.33-6.24-6.6-7.43,1.24-3,3.87-2,5.1.1,1.39,2.36,1.41,6.28,3.23,7.88Zm1.23,0h0c.1-.15-.16.16-.69,0-3.35-3.92-1.1-8.92-6.14-10.1,1.95-2.61,4.9-.38,5.44,1.4.8,2.65.19,6.77,1.39,8.7Zm1.37.39h0c.14-.12-.2.12-.66-.18-2.24-4.8.76-9.41-3.86-11.74,2.57-2,5,1.09,4.89,2.89-.14,2.71-1.43,6.76-.36,9Zm1,.46h0c.15-.09-.37-.08-.73-.37C75.56,196,79.28,190,76.3,187c2.77-1,4.13,1.68,3.78,3.49-.59,3-3.2,6.79-2.47,9Zm.84.29h0c.21-.22-.71,0-.54-.3-.55-3.34,4.45-8.39,2.28-12,2.92-.34,3.37,1.39,2.81,3.27-.87,2.95-4.22,6.92-4.55,9Zm.51,0h0c0-1.67,1.73-3.08,3-5.28s2.15-4.62,1.8-6c5.23,1.43-3,13.61-4.83,11.23Zm1.57.41c3.46,2,10.2-8.33,5.46-9.77.69,2.89-4,9.61-5.46,9.77Zm3,0c2.57,2,5.18-.78,5.63-4.12.22-1.72,0-2.56-.83-3.4,0,2.48-3.37,7.1-4.8,7.52Zm3,1.08c2.51,2,4.46-1,4.61-3.77.1-1.81-.27-3.39-1.38-3.53.41,2.81-1.27,6.76-3.23,7.3Zm2.73.77h0c1.54-.17,3-4.36,2.12-6.78.37-.18,1.82,1.11,1.83,2.91,0,2.28-1.34,5.5-3.95,3.87Zm3.28-.15c2.49.94,3.75-2.77,2.43-4.75-.7-1-1.28-1.12-1.65-.94.7,1.85.47,4.79-.78,5.69Zm2.72-.22h0a5,5,0,0,0-.1-5.11c.38-.18,1-.15,1.66.94,1,1.54.42,4.47-1.56,4.17Zm2.22-.89c2,.3,2-2.14,1-3.67-.68-1.09-1.28-1.13-1.66-.95a6,6,0,0,1,.61,4.62Zm2.2-1.28c1.59-.73,1.33-2.82.18-3.68s-1.73-.76-2.26-.1a3.66,3.66,0,0,1,2.08,3.79Zm1.53-2h0c.44-.94-1.3-2.8-2.35-2.74a1.61,1.61,0,0,1,2.35,0,1.74,1.74,0,0,1,0,2.74Zm.81-2.51h0a2.41,2.41,0,0,0-2.48-1.05c.08-.42.34-.74,1.45-.6a1.18,1.18,0,0,1,1,1.65Zm-6.57-7.54c-.32.08-1.13.28-.88,1.18a.72.72,0,0,0,1.24.35,1.43,1.43,0,0,1-.36-1.53Zm1.71-.21h0a1.6,1.6,0,0,0-.44,1.62c-.18.15-1.13,0-.92-.94s1-.75,1.36-.68Zm1.66.55a1,1,0,0,0-1.68.24.78.78,0,0,0,.61,1.31,1.84,1.84,0,0,1,1.07-1.55Zm1.22.94c-.77.1-1.39.81-1.34,1.27a.72.72,0,0,1-.25-1.2c.67-.85,1.29-.3,1.59-.07Zm1,1.6h0c-.81-.25-1.77.1-1.82.59-.27,0-.61-.84.34-1.37a.92.92,0,0,1,1.47.78Zm.68,1.46c0-.52-.45-1.18-1.55-.79s-1.11,1.25-.84,1.27c0-.51,1.6-.7,2.4-.47Zm.28,1.41a1.34,1.34,0,0,0-1.81-1.09c-1,.36-1.09.82-.92,1.26a2.3,2.3,0,0,1,2.73-.17Zm-8.2-2.25a1.28,1.28,0,0,1-1.14-.14c-.1.41.38,1.13.91,1s.48-.56.23-.82Zm.16-.87c-.44.08-.78-.3-1-.76-.15.4-.45.88,0,1.15s.77.28.94-.39Zm.12-1.86a1.42,1.42,0,0,0,.62,1.28c-.42.32-1,.35-1.18-.26a.76.76,0,0,1,.56-1Zm.27,3.15h0c.53-.05.79.34.42.89a.55.55,0,0,1-1-.26A.84.84,0,0,0,94.32,191.5Z"/><path class="cls-31" d="M80.11,206.71a1.49,1.49,0,0,1-1.46,1c-.84.06-1.57-.4-1.6-1v0a1.48,1.48,0,0,0,.84-1.07h0a2.08,2.08,0,0,0,2.15,1.11ZM79,209.47l-.09.08a1.69,1.69,0,0,1-2.1-.05,1.08,1.08,0,0,1,.14-1.64,2,2,0,0,0,2,.18,1.35,1.35,0,0,0-.12,1.05,1.8,1.8,0,0,0,.16.38Zm-5.91-1.3a1.52,1.52,0,0,1-1.19,1.61,1.2,1.2,0,0,1-1.52-1.49,1.6,1.6,0,0,0,1-.61,2,2,0,0,0,1.31.24,1.1,1.1,0,0,0,.26-.06,1.34,1.34,0,0,1,.09.31Zm3,.92h0a1.4,1.4,0,0,0,.31-.92,1.73,1.73,0,0,1-1.13.64,2.25,2.25,0,0,1-1.61-.42,1,1,0,0,0,.41,1.35,1.8,1.8,0,0,0,2-.65Zm-2.41-3h0a1.11,1.11,0,0,1-.41.14,1.68,1.68,0,0,1-1.85-1.3l-.06.05a1,1,0,0,1-.32.75,2,2,0,0,0,.67,1.51,1.23,1.23,0,0,0,1.86,0,1.42,1.42,0,0,0,.11-1.15Zm2.61,1.58a1.42,1.42,0,0,0,.31-.82l-.14,0a2.18,2.18,0,0,1-1.9-.69,2,2,0,0,0-.51.45c-.49.65-.39,1.39.23,1.68a1.8,1.8,0,0,0,2-.65Zm16-1a1.14,1.14,0,0,1-1,1.42,1.56,1.56,0,0,1-.57,0,1.36,1.36,0,0,0,0-.75,1.81,1.81,0,0,0-.91-1.07,1.11,1.11,0,0,1,.84-.55,1.41,1.41,0,0,1,1.59,1v0Zm-2,.65a1.43,1.43,0,0,0-1.58-1,1.79,1.79,0,0,0-.35.11,1.79,1.79,0,0,1,.48.76,1.37,1.37,0,0,1-.39,1.39,1.37,1.37,0,0,0,.89.15,1.12,1.12,0,0,0,1-1.4Zm-2,0a1.16,1.16,0,0,1-1,1.46,1.47,1.47,0,0,1-1.64-1s0-.09,0-.14a2.79,2.79,0,0,0,.86.05,1.58,1.58,0,0,0,1.33-1.06,1.45,1.45,0,0,1,.48.73Zm-3.06.3a1,1,0,0,1-.87,1.29,1.36,1.36,0,0,1-1.17-.4,1.37,1.37,0,0,0,.37-1.36,1.42,1.42,0,0,0-.14-.33.85.85,0,0,1,.36-.12,1.44,1.44,0,0,1,.65.05,1.84,1.84,0,0,0,.71.61,1,1,0,0,1,.09.26Zm-3.15,1.36h0a2.06,2.06,0,0,1-2-1.09,1.13,1.13,0,0,0-1,1.39,1.72,1.72,0,0,0,1.84,1,1.16,1.16,0,0,0,1.11-1.3Zm1-1.72h0a1.89,1.89,0,0,1-1.91-1,1.14,1.14,0,0,0-.7,1.36,1.48,1.48,0,0,0,1.64,1,1.15,1.15,0,0,0,1-1.43Zm-2.17-1.1a1.44,1.44,0,0,1-.24-.48,1.29,1.29,0,0,1,.2-1.07,1.65,1.65,0,0,0-1.51-.62,1.24,1.24,0,0,0-1,1.56,1.58,1.58,0,0,0,1.75,1.1,1.33,1.33,0,0,0,.84-.49Zm-10.16-1.69c.2.6-.27,1.2-1,1.29a1.58,1.58,0,0,1-1.75-.93.86.86,0,0,1,0-.55l.3.22a1.89,1.89,0,0,0,2.23,0,1.07,1.07,0,0,0,.16-.27,1.22,1.22,0,0,1,.1.23Zm.26,3h0a1.52,1.52,0,0,1-.79-.75,1.16,1.16,0,0,1,0-.8,1,1,0,0,1-.68.51,1.39,1.39,0,0,1-.88,0,1.09,1.09,0,0,0,0,.92,1.4,1.4,0,0,0,1.66.79,1.1,1.1,0,0,0,.73-.64Zm-1,.81a.74.74,0,0,1-.14.58,1.16,1.16,0,0,1-1.55,0,1.06,1.06,0,0,1-.4-1.45.84.84,0,0,1,.5-.28.88.88,0,0,0,0,.56,1.13,1.13,0,0,0,1.22.77.87.87,0,0,0,.4-.18Zm17.36-2.49a1.41,1.41,0,0,0-1.56-1,1.12,1.12,0,0,0-1,1.39,1.41,1.41,0,0,0,1.57,1,1.11,1.11,0,0,0,.94-1.38Zm-3.41-.5h0a1.41,1.41,0,0,0-1.58-1,1.11,1.11,0,0,0-.94,1.4,1.42,1.42,0,0,0,1.58,1,1.12,1.12,0,0,0,.95-1.4Zm-19.11-2a1,1,0,0,1-.09,1,1.33,1.33,0,0,1-1.81,0,1.24,1.24,0,0,1-.48-1.69,1.07,1.07,0,0,1,.87-.35,1.8,1.8,0,0,0,1.49,1.09h0Zm-2-4.37a1.29,1.29,0,0,1,1.19,1.1,1,1,0,0,0-.57.9,1.45,1.45,0,0,0,0,.29,1.14,1.14,0,0,1-.66.2,1.54,1.54,0,0,1-1.36-1.4,1.26,1.26,0,0,1,1.36-1.09Zm-1.94.12h0A1.31,1.31,0,0,0,59.45,200a1.6,1.6,0,0,0,1.42,1.47,1.24,1.24,0,0,0,.84-.31A1.59,1.59,0,0,1,61,200a1.11,1.11,0,0,1,.51-.9,1.18,1.18,0,0,0-.65-.19Zm4,5.53a1.69,1.69,0,0,1-2.08.46h0a1,1,0,0,0-.1.83,1.67,1.67,0,0,0,1.84,1.06,1.3,1.3,0,0,0,.91-1.6,1.44,1.44,0,0,0-.53-.74Zm1.84-2.3a1.29,1.29,0,0,1,.69.23,1.33,1.33,0,0,0,.44,1.73,1.29,1.29,0,0,1-1.13.66,1.61,1.61,0,0,1-1.42-1.45h.1a1.28,1.28,0,0,0,1.28-1.17ZM66,208.05a1.5,1.5,0,0,1-1.21.62A1.77,1.77,0,0,1,63.18,207a2,2,0,0,1,0-.23,1.6,1.6,0,0,0,1.12.56,1.48,1.48,0,0,0,.72-.18,2.06,2.06,0,0,0,.93.87Zm-.23-1.87,0,0a1.45,1.45,0,0,1-.54.79,1.48,1.48,0,0,0,.49-.84Zm-3.29-4.35h0a1.64,1.64,0,0,1-.6-.28,1.44,1.44,0,0,1-1,.35,1.12,1.12,0,0,1-.36-.05,1,1,0,0,0-.14.54A1.84,1.84,0,0,0,62,204.1a1.6,1.6,0,0,0,.39,0,1.84,1.84,0,0,1-.56-1.2,1.21,1.21,0,0,1,.61-1Zm.39,2.87h0a1.5,1.5,0,0,1-.42-.29,1.86,1.86,0,0,1-.34.05,1.19,1.19,0,0,1-.77-.27A1,1,0,0,0,61,205a1.61,1.61,0,0,0,1.46,1.44h.09a1.39,1.39,0,0,1-.26-.75,1.1,1.1,0,0,1,.58-1Zm3.73.51h0a1.72,1.72,0,0,0-.68.13,1,1,0,0,1,.11.49,1.19,1.19,0,0,1-.71,1.06,1.58,1.58,0,0,0,1.28.8,1.26,1.26,0,0,0,1.32-1.18,1.37,1.37,0,0,0-1.32-1.3Zm-1.37-5.31a1.51,1.51,0,0,0-1.63,1.33,1.84,1.84,0,0,0,1.63,1.7,1.47,1.47,0,0,0,1.5-1.44,1.6,1.6,0,0,0-1.5-1.59Zm11.47,4.41a1.45,1.45,0,0,0-1.94,0,1.31,1.31,0,0,0,.5,1.8,1.47,1.47,0,0,0,2,0,1.33,1.33,0,0,0-.51-1.8Zm-3.31-.84a1.43,1.43,0,0,1,.46,1.81,1.19,1.19,0,0,1-1.74,0,1.42,1.42,0,0,1-.45-1.81,1.19,1.19,0,0,1,1.73,0Zm-3.51-1.76a1.63,1.63,0,0,0-2.22,0,1.53,1.53,0,0,0,.58,2.08,1.65,1.65,0,0,0,2.23,0A1.53,1.53,0,0,0,69.86,201.71Z"/><path class="cls-32" d="M80.11,206.71a1.49,1.49,0,0,1-1.46,1c-.84.06-1.6-.4-1.6-1v0a1.48,1.48,0,0,0,.84-1.07h0a2.08,2.08,0,0,0,2.15,1.11ZM79,209.47l-.09.08a1.69,1.69,0,0,1-2.1-.05,1.08,1.08,0,0,1,.14-1.64,2,2,0,0,0,2,.18,1.35,1.35,0,0,0-.12,1.05s.1.25.16.38Zm-5.91-1.3a1.52,1.52,0,0,1-1.19,1.61,1.23,1.23,0,0,1-1.56-.95l0-.54a1.6,1.6,0,0,0,1-.61,2,2,0,0,0,1.31.24l.26-.06.09.31Zm3,.92a1.8,1.8,0,0,1-2,.65,1,1,0,0,1-.41-1.35,2.25,2.25,0,0,0,1.61.42,1.73,1.73,0,0,0,1.13-.64,1.52,1.52,0,0,1-.31.92Zm-2.41-3a1.42,1.42,0,0,1-.11,1.15,1.23,1.23,0,0,1-1.86,0,2.06,2.06,0,0,1-.67-1.51,1,1,0,0,0,.32-.75l.06-.05a1.68,1.68,0,0,0,1.85,1.3,2.16,2.16,0,0,0,.41-.14Zm2.61,1.58a1.8,1.8,0,0,1-2,.65c-.62-.29-.72-1-.23-1.68a2,2,0,0,1,.51-.45,2.18,2.18,0,0,0,1.9.69l.14,0a1.36,1.36,0,0,1-.31.82Zm16-1a1.14,1.14,0,0,1-1,1.42l-.57,0a1.36,1.36,0,0,0,0-.75,1.81,1.81,0,0,0-.91-1.07,1.11,1.11,0,0,1,.84-.55,1.41,1.41,0,0,1,1.59,1v0Zm-2,.65a1.12,1.12,0,0,1-1,1.4,1.37,1.37,0,0,1-.89-.15,1.37,1.37,0,0,0,.39-1.39,1.79,1.79,0,0,0-.48-.76l.35-.11a1.43,1.43,0,0,1,1.58,1Zm-2,0a1.16,1.16,0,0,1-1,1.46,1.47,1.47,0,0,1-1.64-1l0-.14a2.79,2.79,0,0,0,.86.05,1.58,1.58,0,0,0,1.33-1.06,1.45,1.45,0,0,1,.48.73Zm-3.06.3a1,1,0,0,1-.87,1.29,1.36,1.36,0,0,1-1.17-.4,1.37,1.37,0,0,0,.37-1.36,2.5,2.5,0,0,0-.14-.33l.36-.12a3.05,3.05,0,0,1,.65.05,1.84,1.84,0,0,0,.71.61l.09.26Zm-3.15,1.36a1.16,1.16,0,0,1-1.11,1.3,1.72,1.72,0,0,1-1.84-1,1.13,1.13,0,0,1,1-1.39,2.06,2.06,0,0,0,2,1.09Zm1-1.72a1.15,1.15,0,0,1-1,1.43,1.48,1.48,0,0,1-1.64-1,1.14,1.14,0,0,1,.7-1.36,1.89,1.89,0,0,0,1.91,1Zm-2.17-1.1a1.33,1.33,0,0,1-.84.49,1.58,1.58,0,0,1-1.75-1.1,1.24,1.24,0,0,1,1-1.56,1.65,1.65,0,0,1,1.51.62,1.29,1.29,0,0,0-.2,1.07,2.53,2.53,0,0,0,.24.48Zm-10.16-1.69c.2.6-.27,1.2-1,1.29a1.58,1.58,0,0,1-1.75-.93.86.86,0,0,1,0-.55l.3.22a1.89,1.89,0,0,0,2.23,0,2.13,2.13,0,0,0,.16-.27l.1.23Zm.26,3a1.1,1.1,0,0,1-.73.64,1.4,1.4,0,0,1-1.66-.79,1.09,1.09,0,0,1,0-.92,1.39,1.39,0,0,0,.88,0,1,1,0,0,0,.68-.51,1.16,1.16,0,0,0,0,.8,1.52,1.52,0,0,0,.79.75Zm-1,.81a1.28,1.28,0,0,1-.14.58,1.16,1.16,0,0,1-1.55,0,1.06,1.06,0,0,1-.4-1.45,1.65,1.65,0,0,1,.5-.28,1.64,1.64,0,0,0,0,.56,1.13,1.13,0,0,0,1.22.77,1.65,1.65,0,0,0,.4-.18Zm17.36-2.49a1.11,1.11,0,0,1-.94,1.38,1.41,1.41,0,0,1-1.57-1,1.12,1.12,0,0,1,1-1.39,1.41,1.41,0,0,1,1.56,1Zm-3.41-.5a1.12,1.12,0,0,1-.95,1.4,1.42,1.42,0,0,1-1.58-1,1.11,1.11,0,0,1,.94-1.4,1.41,1.41,0,0,1,1.58,1Zm-19.11-2a1,1,0,0,1-.09,1,1.33,1.33,0,0,1-1.81,0,1.24,1.24,0,0,1-.48-1.69,1.07,1.07,0,0,1,.87-.35,1.8,1.8,0,0,0,1.49,1.09Zm-2-4.37a1.29,1.29,0,0,1,1.19,1.1,1,1,0,0,0-.57.9l0,.29a1.14,1.14,0,0,1-.66.2,1.54,1.54,0,0,1-1.36-1.4,1.26,1.26,0,0,1,1.36-1.09Zm-1.94.12a1.18,1.18,0,0,1,.65.19,1.11,1.11,0,0,0-.51.9,1.59,1.59,0,0,0,.7,1.21,1.24,1.24,0,0,1-.84.31A1.6,1.6,0,0,1,59.45,200a1.31,1.31,0,0,1,1.42-1.14Zm4,5.53a1.44,1.44,0,0,1,.53.74,1.3,1.3,0,0,1-.91,1.6,1.67,1.67,0,0,1-1.84-1.06,1,1,0,0,1,.1-.83h0a1.69,1.69,0,0,0,2.08-.46Zm1.84-2.3a1.29,1.29,0,0,1,.69.23,1.33,1.33,0,0,0,.44,1.73,1.29,1.29,0,0,1-1.13.66,1.6,1.6,0,0,1-1.42-1.45h.1a1.25,1.25,0,0,0,1.28-1.17ZM66,208.05a1.5,1.5,0,0,1-1.21.62A1.77,1.77,0,0,1,63.18,207l0-.23a1.6,1.6,0,0,0,1.12.56,1.48,1.48,0,0,0,.72-.18,2.06,2.06,0,0,0,.93.87Zm-.23-1.87,0,0a1.45,1.45,0,0,1-.54.79,1.21,1.21,0,0,0,.49-.84Zm-3.29-4.35a1.21,1.21,0,0,0-.61,1,1.84,1.84,0,0,0,.56,1.2l-.39,0a1.84,1.84,0,0,1-1.63-1.71,1.74,1.74,0,0,1,.14-.54l.36.05a1.44,1.44,0,0,0,1-.35,2.94,2.94,0,0,0,.6.28Zm.39,2.87a1.12,1.12,0,0,0-.58,1,1.39,1.39,0,0,0,.26.75h-.09A1.59,1.59,0,0,1,61,205a1.06,1.06,0,0,1,.34-.78,1.19,1.19,0,0,0,.77.27l.34-.05a1.5,1.5,0,0,0,.42.29Zm3.73.51a1.37,1.37,0,0,1,1.32,1.3,1.26,1.26,0,0,1-1.32,1.18,1.58,1.58,0,0,1-1.28-.8,1.19,1.19,0,0,0,.71-1.06,1.76,1.76,0,0,0-.11-.49,1.72,1.72,0,0,1,.68-.13Zm-1.37-5.31a1.6,1.6,0,0,1,1.5,1.59,1.47,1.47,0,0,1-1.5,1.44,1.84,1.84,0,0,1-1.63-1.7,1.51,1.51,0,0,1,1.63-1.33Zm11.47,4.41a1.33,1.33,0,0,1,.51,1.8,1.47,1.47,0,0,1-2,0,1.31,1.31,0,0,1-.5-1.8,1.45,1.45,0,0,1,1.94,0Zm-3.31-.84a1.43,1.43,0,0,1,.46,1.81,1.19,1.19,0,0,1-1.74,0,1.42,1.42,0,0,1-.45-1.81,1.19,1.19,0,0,1,1.73,0Zm-3.51-1.76a1.53,1.53,0,0,1,.59,2.08,1.65,1.65,0,0,1-2.23,0,1.53,1.53,0,0,1-.58-2.08A1.63,1.63,0,0,1,69.86,201.71Z"/><path class="cls-33" d="M91.31,169.33A18,18,0,0,0,89,163.26c-.69-.73-1.45-1.38-2.14-2.11q1.34.94,2.67,1.92a18.62,18.62,0,0,1,2.16,5.14c.32-.29.48-.11.8-.4,1.53-.69,3.22-3,4.75-4.58-.22.52-1.09,2-1.31,2.48-2.87,2.83-4,3-4,4.07-.07.33-.17.69-.25,1,.57-.54,2.19-2.16,2.77-2.68-.52.76-2.22,2.63-2.28,3.4-.56.63-.27,1.28-.14,1.93,2.14-.65,4.49-2.41,6.85-4.11-2.34,2.83-4.5,2.9-6.76,5.56-.11,1-.2,2.1-.31,3.14.09.88,0,1.75.11,2.63a1.41,1.41,0,0,0,1.48,1.24c1.49.32,5.72.08,7.18.87H82.05c.91-.58,5.22-.88,6.52-.87a1.81,1.81,0,0,0,1.78-1.41c.1-1.49.21-3,.3-4.46a2.18,2.18,0,0,0-1-2,19.85,19.85,0,0,1-4.52-4.88,39.77,39.77,0,0,0,5.71,4.93c.08-.28.15-.54.22-.81v-2.06a17,17,0,0,1-3.91-3.86c.06-.07-1.49-1.79-1.43-1.86a39.1,39.1,0,0,0,5.48,4.91c0-.16,0-.32,0-.47s-.3-.4-.45-.6Z"/><path class="cls-29" d="M98.62,169.16c.78-2.29,1.44-2.2,2.81-2.9C100.52,168.36,99.69,169.14,98.62,169.16Z"/><path class="cls-29" d="M98.62,169.16c.78-2.29,1.44-2.2,2.81-2.9C100.52,168.36,99.69,169.14,98.62,169.16Z"/><path class="cls-29" d="M92.42,174.72c2.47-1.35,3.08.52,4.25.47C95.2,176.33,93.35,174.7,92.42,174.72Z"/><path class="cls-29" d="M92.42,174.72c2.47-1.35,3.08.52,4.25.47C95.2,176.33,93.35,174.7,92.42,174.72Z"/><path class="cls-29" d="M94.26,162.22c-1.32-3.06,1.1-3.18,1.22-4.48C96.66,159.66,94.37,161.21,94.26,162.22Z"/><path class="cls-29" d="M94.26,162.22c-1.32-3.06,1.1-3.18,1.22-4.48C96.66,159.66,94.37,161.21,94.26,162.22Z"/><path class="cls-29" d="M89.89,173.38c-1.12-1.55-.59-1.87-.16-3C90.62,171.93,90.61,172.77,89.89,173.38Z"/><path class="cls-29" d="M89.89,173.38c-1.12-1.55-.59-1.87-.16-3C90.62,171.93,90.61,172.77,89.89,173.38Z"/><path class="cls-29" d="M86.9,170.87c-2.23-1.71-.21-2.77-.58-3.74C88,168,86.64,170.08,86.9,170.87Z"/><path class="cls-29" d="M86.9,170.87c-2.23-1.71-.21-2.77-.58-3.74C88,168,86.64,170.08,86.9,170.87Z"/><path class="cls-29" d="M88.79,172.39c-2.21-1.73-.64-3-1.12-4C89.29,169.28,88.43,171.55,88.79,172.39Z"/><path class="cls-29" d="M88.79,172.39c-2.21-1.73-.64-3-1.12-4C89.29,169.28,88.43,171.55,88.79,172.39Z"/><path class="cls-29" d="M97.32,163.18c-.22-3.15,1.48-3.58,2.74-4.8C100,161.32,98.56,162.9,97.32,163.18Z"/><path class="cls-29" d="M97.32,163.18c-.22-3.15,1.48-3.58,2.74-4.8C100,161.32,98.56,162.9,97.32,163.18Z"/><path class="cls-29" d="M93.77,173.52c2.43-1.42,3.09.43,4.27.35C96.61,175,94.71,173.46,93.77,173.52Z"/><path class="cls-29" d="M93.77,173.52c2.43-1.42,3.09.43,4.27.35C96.61,175,94.71,173.46,93.77,173.52Z"/><path class="cls-29" d="M95.62,172.37c2.61-1.1,3,.82,4.19.88C98.23,174.24,96.56,172.44,95.62,172.37Z"/><path class="cls-29" d="M95.62,172.37c2.61-1.1,3,.82,4.19.88C98.23,174.24,96.56,172.44,95.62,172.37Z"/><path class="cls-29" d="M97.06,171.59c1.64-1.94,2.7-.3,3.65-.67C99.83,172.39,97.83,171.32,97.06,171.59Z"/><path class="cls-29" d="M97.06,171.59c1.64-1.94,2.7-.3,3.65-.67C99.83,172.39,97.83,171.32,97.06,171.59Z"/><path class="cls-29" d="M98.33,170.38c.86-2,2-.5,2.67-.91C100.62,171,98.86,170.06,98.33,170.38Z"/><path class="cls-29" d="M98.33,170.38c.86-2,2-.5,2.67-.91C100.62,171,98.86,170.06,98.33,170.38Z"/><path class="cls-29" d="M90.85,174.72c-2.49-1.35-3.1.52-4.27.47C88.05,176.33,89.9,174.7,90.85,174.72Z"/><path class="cls-29" d="M90.85,174.72c-2.49-1.35-3.1.52-4.27.47C88.05,176.33,89.9,174.7,90.85,174.72Z"/><path class="cls-29" d="M89.49,173.52c-2.44-1.42-3.09.43-4.28.35C86.65,175,88.55,173.46,89.49,173.52Z"/><path class="cls-29" d="M89.49,173.52c-2.44-1.42-3.09.43-4.28.35C86.65,175,88.55,173.46,89.49,173.52Z"/><path class="cls-29" d="M87.63,172.37c-2.6-1.1-3,.82-4.19.88C85,174.24,86.69,172.44,87.63,172.37Z"/><path class="cls-29" d="M87.63,172.37c-2.6-1.1-3,.82-4.19.88C85,174.24,86.69,172.44,87.63,172.37Z"/><path class="cls-29" d="M86.19,171.59c-1.64-1.94-2.69-.3-3.65-.67C83.43,172.39,85.43,171.32,86.19,171.59Z"/><path class="cls-29" d="M86.19,171.59c-1.64-1.94-2.69-.3-3.65-.67C83.43,172.39,85.43,171.32,86.19,171.59Z"/><path class="cls-29" d="M84.92,170.38c-.86-2-2-.5-2.66-.91C82.64,171,84.39,170.06,84.92,170.38Z"/><path class="cls-29" d="M84.92,170.38c-.86-2-2-.5-2.66-.91C82.64,171,84.39,170.06,84.92,170.38Z"/><path class="cls-29" d="M85.06,169c-.78-2.29-1.45-2.21-2.8-2.9C83.16,168.19,84,169,85.06,169Z"/><path class="cls-29" d="M85.06,169c-.78-2.29-1.45-2.21-2.8-2.9C83.16,168.19,84,169,85.06,169Z"/><path class="cls-29" d="M93.17,172.84A3.55,3.55,0,0,0,94,169.7,2.72,2.72,0,0,0,93.17,172.84Z"/><path class="cls-29" d="M93.17,172.84A3.55,3.55,0,0,0,94,169.7,2.72,2.72,0,0,0,93.17,172.84Z"/><path class="cls-29" d="M96.85,170.2c2.6-1.09.93-2.69,1.42-4.41C97.08,167.45,97,169.56,96.85,170.2Z"/><path class="cls-29" d="M96.85,170.2c2.6-1.09.93-2.69,1.42-4.41C97.08,167.45,97,169.56,96.85,170.2Z"/><path class="cls-29" d="M94.66,171.8c2.59-1.12,1.27-3.17,2-4.07C95.16,168.6,95.23,171.08,94.66,171.8Z"/><path class="cls-29" d="M94.66,171.8c2.59-1.12,1.27-3.17,2-4.07C95.16,168.6,95.23,171.08,94.66,171.8Z"/><path class="cls-29" d="M86.74,166.88c-1.47-1.94-2.08-1.67-3.6-1.92C84.67,166.68,85.7,167.18,86.74,166.88Z"/><path class="cls-29" d="M86.74,166.88c-1.47-1.94-2.08-1.67-3.6-1.92C84.67,166.68,85.7,167.18,86.74,166.88Z"/><path class="cls-29" d="M86.26,166c.15-2.77-.6-3-1.76-4.25C84.56,164.35,85.12,165.52,86.26,166Z"/><path class="cls-29" d="M86.26,166c.15-2.77-.6-3-1.76-4.25C84.56,164.35,85.12,165.52,86.26,166Z"/><path class="cls-29" d="M87.52,161.56c1.47-2.08.73-2.35.07-3.56C86.43,160,86.48,161,87.52,161.56Z"/><path class="cls-29" d="M87.52,161.56c1.47-2.08.73-2.35.07-3.56C86.43,160,86.48,161,87.52,161.56Z"/><path class="cls-29" d="M87.89,168.08c-2.24-1.7-.22-2.75-.6-3.74C89,165.26,87.62,167.29,87.89,168.08Z"/><path class="cls-29" d="M87.89,168.08c-2.24-1.7-.22-2.75-.6-3.74C89,165.26,87.62,167.29,87.89,168.08Z"/><path class="cls-29" d="M89.89,169.44c-1.12-1.53-.59-1.86-.16-2.95C90.62,168,90.61,168.84,89.89,169.44Z"/><path class="cls-29" d="M89.89,169.44c-1.12-1.53-.59-1.86-.16-2.95C90.62,168,90.61,168.84,89.89,169.44Z"/><path class="cls-29" d="M88.79,168.68a3.63,3.63,0,0,0,0-3.24A2.71,2.71,0,0,0,88.79,168.68Z"/><path class="cls-29" d="M88.79,168.68a3.63,3.63,0,0,0,0-3.24A2.71,2.71,0,0,0,88.79,168.68Z"/><path class="cls-29" d="M89.35,162.8c-2.23-1.7-.21-2.76-.58-3.74C90.47,160,89.09,162,89.35,162.8Z"/><path class="cls-29" d="M89.35,162.8c-2.23-1.7-.21-2.76-.58-3.74C90.47,160,89.09,162,89.35,162.8Z"/><path class="cls-29" d="M94.08,161.72c-2.71-.8-1.23-2.49-1.94-3.28C94.07,158.7,93.53,161.08,94.08,161.72Z"/><path class="cls-29" d="M94.08,161.72c-2.71-.8-1.23-2.49-1.94-3.28C94.07,158.7,93.53,161.08,94.08,161.72Z"/><path class="cls-29" d="M92.38,168a4.44,4.44,0,0,0,.08-4A3.32,3.32,0,0,0,92.38,168Z"/><path class="cls-29" d="M92.38,168a4.44,4.44,0,0,0,.08-4A3.32,3.32,0,0,0,92.38,168Z"/><path class="cls-29" d="M96.15,164.09c2.21-1.74.15-2.84.15-4.62C95.62,161.36,96.17,163.42,96.15,164.09Z"/><path class="cls-29" d="M96.15,164.09c2.21-1.74.15-2.84.15-4.62C95.62,161.36,96.17,163.42,96.15,164.09Z"/><path class="cls-29" d="M93.83,167c2.11-2.34-.49-3.38-.23-4.53C92.48,164,94,166.11,93.83,167Z"/><path class="cls-29" d="M93.83,167c2.11-2.34-.49-3.38-.23-4.53C92.48,164,94,166.11,93.83,167Z"/><path class="cls-29" d="M101.62,163c-2.08,1.9-2.84,1.35-4.83,1.18C98.93,162.55,100.31,162.28,101.62,163Z"/><path class="cls-29" d="M101.62,163c-2.08,1.9-2.84,1.35-4.83,1.18C98.93,162.55,100.31,162.28,101.62,163Z"/><path class="cls-29" d="M95.36,166c2.31-1.64,3-1,5-.58C98,166.72,96.57,166.81,95.36,166Z"/><path class="cls-29" d="M95.36,166c2.31-1.64,3-1,5-.58C98,166.72,96.57,166.81,95.36,166Z"/><path class="cls-29" d="M95.54,165.35a4.4,4.4,0,0,0-.84-3.85A3.29,3.29,0,0,0,95.54,165.35Z"/><path class="cls-29" d="M95.54,165.35a4.4,4.4,0,0,0-.84-3.85A3.29,3.29,0,0,0,95.54,165.35Z"/><path class="cls-29" d="M91,165.79c-.75-1.75-.16-1.95.51-2.93C92,164.53,91.79,165.35,91,165.79Z"/><path class="cls-29" d="M91,165.79c-.75-1.75-.16-1.95.51-2.93C92,164.53,91.79,165.35,91,165.79Z"/><path class="cls-29" d="M89.85,163.88a3.58,3.58,0,0,0,1.1-3A2.69,2.69,0,0,0,89.85,163.88Z"/><path class="cls-29" d="M89.85,163.88a3.58,3.58,0,0,0,1.1-3A2.69,2.69,0,0,0,89.85,163.88Z"/><path class="cls-29" d="M88.71,163a4,4,0,0,0-3.26-.73A2.89,2.89,0,0,0,88.71,163Z"/><path class="cls-29" d="M88.71,163a4,4,0,0,0-3.26-.73A2.89,2.89,0,0,0,88.71,163Z"/><path class="cls-29" d="M90.11,165.79a4,4,0,0,0-3.26-.73A2.91,2.91,0,0,0,90.11,165.79Z"/><path class="cls-29" d="M90.11,165.79a4,4,0,0,0-3.26-.73A2.91,2.91,0,0,0,90.11,165.79Z"/><path class="cls-29" d="M89.89,164.65a3.87,3.87,0,0,0-3.25-.74A2.92,2.92,0,0,0,89.89,164.65Z"/><path class="cls-29" d="M89.89,164.65a3.87,3.87,0,0,0-3.25-.74A2.92,2.92,0,0,0,89.89,164.65Z"/><path class="cls-29" d="M92.44,168.58c2.42,1.44,3.1-.42,4.27-.32C95.29,167.08,93.37,168.63,92.44,168.58Z"/><path class="cls-29" d="M92.44,168.58c2.42,1.44,3.1-.42,4.27-.32C95.29,167.08,93.37,168.63,92.44,168.58Z"/><path class="cls-29" d="M94.3,167.11c2.17-1.18,2.6-.68,4.1-.31C96.27,167.75,95.11,167.79,94.3,167.11Z"/><path class="cls-29" d="M94.3,167.11c2.17-1.18,2.6-.68,4.1-.31C96.27,167.75,95.11,167.79,94.3,167.11Z"/><path class="cls-29" d="M87.13,161.77c-2,.18-2.36-.85-3.17-1.62C85.87,160.14,86.92,161,87.13,161.77Z"/><path class="cls-29" d="M87.13,161.77c-2,.18-2.36-.85-3.17-1.62C85.87,160.14,86.92,161,87.13,161.77Z"/><path class="cls-34" d="M78.79,181.47a5.59,5.59,0,0,0-.81-.12c-.66,0-2.58-.59-3-.48-1.16.37-3-.85-3.69-.42a17.44,17.44,0,0,1-3.8.15c-1.91,0-3.13-.42-4.68.32-.76.37-1.86-.8-2.25-.43a3.88,3.88,0,0,1-2.82,1c-.13.45-.28.88-.42,1.29H78.8Z"/><path class="cls-35" d="M74.69,157.2c.19-.2.48-.59.34,0s.2,1.46-.59,1.87c-.06-.16-.15-.16-.14-.35C74.66,158.57,74.41,157.49,74.69,157.2Z"/><path class="cls-36" d="M74.69,157.2c.19-.2.48-.59.34,0s.2,1.46-.59,1.87l-.14-.35c.36-.1.11-1.18.39-1.47"/><path class="cls-37" d="M61.17,167.61c.09.18-.11.57-.4,1a.82.82,0,0,0,.55-.31,2,2,0,0,1-.5.82c.14,0,.28,0,.47-.3v.22c0,.16-.17.4-.22.58s-.2.41-.3.66a2,2,0,0,1-.16-1.77c-.22-.17,0-.55.22-.85-.06,0-.21.14-.28.16A2.35,2.35,0,0,1,61,166.6a.45.45,0,0,1,.71.18c0,.21.07.31-.35.51S61,167.62,61.17,167.61Z"/><path class="cls-38" d="M74.45,172.83c-1,.41-1.7,3.17-2.11,4-.23.47-.74,1.51-.26,2.17.21.29.58.39.6.63.71.11,1.09.45,1,1-.29.47-1.32.37-1.82.1a.43.43,0,0,0-.22-.37c0-.12-.08-.23-.12-.36-1.48-.74-.45-1.67-.63-3.72-.1.38-.19.76-.29,1.13a12.77,12.77,0,0,0-.14,2.51,1.91,1.91,0,0,0,.8.79c.32.11.33.23.65.7,0,.12.22.41.09.52-.18.26-.24.41-1.42.09,0-.15,0-.31-.07-.47-.14.07-.25,0-.31-.18a1.13,1.13,0,0,0-.45-.64c0-.33-.42-.34-.55-.79a7.29,7.29,0,0,1,.18-1.93,14.05,14.05,0,0,0,.37-3,2.69,2.69,0,0,1-.5-2.1c-.94.38-2.36-.36-2.81-.68s-.23,2-1.85,2.92a1.94,1.94,0,0,0-.66,1.07c-.55.54.35,2.45.93,3.06.29.3.72.87,1,1.19s1.06.57,1,1.07a3,3,0,0,1-2,0c0-.21-.37-.58-.1-.79a1.28,1.28,0,0,1-.9-.37,32.22,32.22,0,0,0-1.75-3.47c-.21,0-.31-.58-.29-.79,0-.39.08,0,.55-1.26-.32.62-1.23,1.15-1.18,2,.11.59.67,2,.78,2.59.36.29.23.6,1,.91.37.31,1,.86,1,1.24a2.84,2.84,0,0,1-2,.09c-.13-.26-.15-.66-.28-.93-.17,0-.1-.27-.28-.31s-.69-.09-.89-.21c-.29-1.33-.64-3.52-1-4.85a1.33,1.33,0,0,1,.39-1.16c.6-.35,1-1.14,1.42-1.63.69-.51.33-1.86-.31-2.57-.27.38-.11.51-.22.58-.33.16-.78-.77-.63-1.23s0-1,.12-1.77c.23-1.24.95-1.5,1.65-.87a4.17,4.17,0,0,1,3.32-1.15,6.38,6.38,0,0,1,4.43.36,5.09,5.09,0,0,1,2.53,1.35c.34.29.77.07,1-.26a14.25,14.25,0,0,0-1-5.93c.35-.69.13-.71.32-1.66.42-.64,1.13-.62,1.84-.66a2.14,2.14,0,0,1,1.6.75c.21.32,1.1.42,1.26.61s0,.66-.07,1a.84.84,0,0,1-.72.42c-.18.06-.41,0-.59.08s-.32.33-.56.45a15.26,15.26,0,0,1,.78,5.92,4.27,4.27,0,0,1-1.32,3.58c-.48.37-.18,1-.45,1.38Z"/><path class="cls-39" d="M73,159.45a1.92,1.92,0,0,1,2.48-.17A3,3,0,0,0,77,160a.32.32,0,0,0,.31.3,2,2,0,0,1-.1.35c-.18.19-.67.14-1.14.14a2.19,2.19,0,0,0,1.05.1c-.09.18-.41.54-1.17.38-.19.39-.59.73-1.4.42a2.55,2.55,0,0,1-.82-.21,2.21,2.21,0,0,0,1.29.74,17.53,17.53,0,0,1,.94,5.28,8.11,8.11,0,0,1-.64,3c-.19.46-.54.53-.72.78-.46.62-.31,1.22-.51,1.49-1.31.18-1.42,3.93-2.15,3.76-.53-.13-.79-2-.1-2.42,2.26-1.31,1.43-4.49,1.55-4.21-.49,1.7-.16,3.35-1.28,3.26-.91-.37-1.35,2.25-1.33,2.67a3.22,3.22,0,0,1-.27,1.2c-.09.36-.12,1-.24,2.15a1.62,1.62,0,0,0,.07.73,2.3,2.3,0,0,0,1,.9c.5.17.72.76.59.94a.89.89,0,0,1-1.09,0,.81.81,0,0,1-.12-.47c-.38,0-.39-.51-.72-.82.08-.3-.59-.39-.58-1a20,20,0,0,1,.53-3,4.72,4.72,0,0,0,.3-1.51c-.17-.43.36-.44,0-.77-.71-.67-.62-1.81.38-2.91-.21-.11-.31-.44-.45-.66v.81l-.8.95a3.86,3.86,0,0,1-3-1.05,1.53,1.53,0,0,1-.71-1.4c0-.13-.45,0-.38.1s-.11.4,0,.74.67.42.64.66l-.17,1.31a4.56,4.56,0,0,1-1.59,2.5l-.62,1.35c-.06.79,1.1,2.34,1.69,3,.21.17.4.58.61.74a2.22,2.22,0,0,1,1,.81,2.82,2.82,0,0,1-1.57,0,.6.6,0,0,1,0-.73,1.66,1.66,0,0,1-1-.42,39.83,39.83,0,0,0-1.88-3.59.89.89,0,0,1,.19-1.1c.71-1.51.88-2.69.51-3.49-.61-.21-1.15-1.29-1.29-2.29a3.47,3.47,0,0,1,.72-3,3.71,3.71,0,0,1,3-.87c1.64-.67,4.92.32,5.44.68,1,.15,1.22,1.17,2,1.12a1,1,0,0,0,.91-1c0-4.48-1.13-5-1-5.71a.9.9,0,0,1,.52-.51c-.19-.18-.35-.35-.3-.53l.12-.44Z"/><path class="cls-38" d="M75.9,160.14c-.51-.17-.52-.4-1.12-.23-.41.21-.36.27-.48.48.22-.12.28-.2.42-.13s.64.1.72-.1S75.73,160.2,75.9,160.14Z"/><path class="cls-39" d="M72.16,173.53a88.08,88.08,0,0,0-.33,2.86c.44.79-.17,1.21-.13,2.24.25.63.74.64.75,1.05.61.1,1,.24,1.06.71,0,.07-.13-.15-.32-.11.2.12.26.24.2.28a1.93,1.93,0,0,1-.87.12c-.15-.05-.37-.05-.44-.32,0-.1.08-.3.1-.4a.94.94,0,0,1-.86-1.05c-.06.24-.18.38-.19.51a1.06,1.06,0,0,1-.24-.82,5.57,5.57,0,0,0,.17-2.54C71.05,174.16,71.59,173.88,72.16,173.53Z"/><path class="cls-39" d="M61.18,167.7c.09.18-.11.57-.4,1a.8.8,0,0,0,.55-.31,2,2,0,0,1-.5.82c.14,0,.28,0,.47-.3v.21c0,.16-.16.41-.22.58s-.19.42-.3.67a2,2,0,0,1-.16-1.78c-.21-.18,0-.56.22-.83a2.34,2.34,0,0,0-.27.15,2.15,2.15,0,0,1,.48-1.24.45.45,0,0,1,.72.17c0,.21.06.31-.36.51S61,167.7,61.18,167.7Z"/><path class="cls-35" d="M63.28,171c0,1,.25,1.63.23,2.5a7,7,0,0,1-.86,2.6c.13-.16.32-.44.46-.38a4.29,4.29,0,0,1,.59-1.39,1.89,1.89,0,0,0,.18-1.5A4.71,4.71,0,0,1,63.28,171Z"/><path class="cls-39" d="M61,176.21c0,.18-.08.38-.12.58a7.32,7.32,0,0,0,.88,2.67,1.84,1.84,0,0,1,.52.53l.41.4a2.75,2.75,0,0,1,1.11.92,2,2,0,0,1-1.52,0c-.13-.31-.24-.62-.36-.93a2.78,2.78,0,0,0-.27-.21c-.24-.1-.9-.34-1-.61a20.5,20.5,0,0,0-.73-4,1.26,1.26,0,0,1,.19-1.33A5.19,5.19,0,0,0,61.4,173a2.32,2.32,0,0,0,.74-1.48,2.1,2.1,0,0,1,.45,1.19,2.79,2.79,0,0,1-.19,1.88C61.92,175.16,61.45,175.68,61,176.21Z"/><path class="cls-35" d="M62,172.5c-.09,1.28-1.61,2-1.65,3.32a2.61,2.61,0,0,1,.23-1.57A5.78,5.78,0,0,0,62,172.5Z"/><path class="cls-35" d="M60.51,174.18a2.45,2.45,0,0,0-.51,1.09c0-.25-.14-.49,0-.74A.71.71,0,0,1,60.51,174.18Z"/><path class="cls-39" d="M73.9,159.19a1.6,1.6,0,0,1-.27-1.12c.13-.46.33-.46.47-1,.09-.25.15-.23.18,0a2.58,2.58,0,0,1-.23,2c0-.45,0-.55,0-1.1A2.54,2.54,0,0,0,73.9,159.19Z"/><path class="cls-40" d="M73.9,159.19a1.6,1.6,0,0,1-.27-1.12c.13-.46.33-.46.47-1,.09-.25.18-.23.18,0a2.58,2.58,0,0,1-.23,2c0-.45,0-.55,0-1.1a3,3,0,0,0-.2,1.18"/><path class="cls-41" d="M93.27,181.92c1.5.32,5.8.08,7.26.87H82.05c.91-.58,5.22-.88,6.52-.87Z"/><path class="cls-42" d="M43.7,167.2c4.91,0,4.93,1.25,7.26,2.16l-.2-1.86c-2.46-.67-3.37-1.65-6.81-1.9-3.33,0-4.34,1.44-4.52,1.66l-.68,2.19C39.08,169.27,40.85,167.19,43.7,167.2Z"/><path class="cls-42" d="M48.48,173.55c-6.2-2.23-7.82-2.49-9.23-5.72l-.5,1.62a4.56,4.56,0,0,0,1.83,2.33,18.7,18.7,0,0,0,4.18,2l5.23,1.8a33.86,33.86,0,0,1,5.86,2.69l.22-1.36A62,62,0,0,0,48.48,173.55Z"/><path class="cls-42" d="M115.56,167.2c-4.91,0-4.94,1.25-7.25,2.16l.2-1.86c1.92-.93,3.16-1.86,6.81-1.9s4.4,1.77,4.43,1.78l.62,2.05A7.14,7.14,0,0,0,115.56,167.2Z"/><path class="cls-42" d="M110.79,173.55c6.19-2.23,7.73-2.34,9.15-5.57l.43,1.45a3.78,3.78,0,0,1-1.69,2.35,18.7,18.7,0,0,1-4.18,2l-5.23,1.8a28.53,28.53,0,0,0-5.44,2.47l-.22-1.36A56.56,56.56,0,0,1,110.79,173.55Z"/><path class="cls-20" d="M39.62,139.47,38,137.73l.16-.16a2.12,2.12,0,0,1,.47-.37.81.81,0,0,1,.42-.06,5.84,5.84,0,0,1,1,.17l1.48.33,1-1-1.29-.33a7.17,7.17,0,0,0-1.12-.21,2.73,2.73,0,0,0-.79.07,1.84,1.84,0,0,0,.45-1.16,1.57,1.57,0,0,0-.46-1.05,1.77,1.77,0,0,0-.81-.49,1.31,1.31,0,0,0-.88.07,4.39,4.39,0,0,0-1.08.82l-1.78,1.71,4,4.17.84-.81ZM36.3,136l.65-.63.63-.58a.68.68,0,0,1,.48-.13.7.7,0,0,1,.44.23.71.71,0,0,1,.21.4.67.67,0,0,1-.06.39,4,4,0,0,1-.72.78l-.62.61Z"/><polygon class="cls-20" points="46.52 133.53 45.91 132.77 43.39 134.77 42.42 133.53 44.69 131.75 44.07 130.97 41.81 132.77 41.01 131.76 43.45 129.83 42.85 129.07 39.48 131.72 43.08 136.26 46.52 133.53"/><path class="cls-20" d="M48.4,132.24l-1.2-1.81.64-.42a7.87,7.87,0,0,0,1-.74,1.51,1.51,0,0,0,.34-.55,1.45,1.45,0,0,0,.1-.75,1.79,1.79,0,0,0-.32-.85,1.91,1.91,0,0,0-.9-.77,1.59,1.59,0,0,0-1,0,7.1,7.1,0,0,0-1.21.69l-1.56,1,3.17,4.84,1-.65Zm-2.17-4.32a5.46,5.46,0,0,1,.72-.42.78.78,0,0,1,.54,0,.72.72,0,0,1,.44.34.78.78,0,0,1,.14.43.83.83,0,0,1-.15.45,2.84,2.84,0,0,1-.72.58l-.54.35-.9-1.38Z"/><path class="cls-20" d="M50.69,127.59a7.77,7.77,0,0,0,.79,1.24,1.71,1.71,0,0,0,.59.42,2,2,0,0,0,.83.12,3.25,3.25,0,0,0,1.2-.42,3,3,0,0,0,.89-.68,1.71,1.71,0,0,0,.38-.73,1.68,1.68,0,0,0,0-.8,6.69,6.69,0,0,0-.61-1.35L53.3,122.7l-1,.55,1.5,2.83a5.37,5.37,0,0,1,.41.89.76.76,0,0,1,0,.59,1.16,1.16,0,0,1-.55.52,1.25,1.25,0,0,1-.79.17,1,1,0,0,1-.57-.33,6.83,6.83,0,0,1-.5-.84l-1.47-2.77-1,.55,1.45,2.73Zm.36-4.29-.61.33-.07-1.3,1.09-.58Z"/><path class="cls-20" d="M57.24,127.23l1.82-.75c.69-.3,1.11-.48,1.28-.57a1.62,1.62,0,0,0,.62-.56,1.44,1.44,0,0,0,.23-.74,1.69,1.69,0,0,0-.12-.78,1.37,1.37,0,0,0-.59-.7,1.45,1.45,0,0,0-.95-.17,1.49,1.49,0,0,0,.35-.71,1.32,1.32,0,0,0-.09-.76,1.19,1.19,0,0,0-.42-.56,1.26,1.26,0,0,0-.59-.27,1.47,1.47,0,0,0-.66,0,10,10,0,0,0-1,.34l-2.14.89,2.22,5.34Zm-.15-5.16c.51-.21.82-.32.93-.36a.63.63,0,0,1,.49,0,.68.68,0,0,1,.3.34.64.64,0,0,1,0,.49.88.88,0,0,1-.35.37l-.77.34-.72.29-.51-1.23.62-.26Zm1.13,2a3.78,3.78,0,0,1,1-.32.78.78,0,0,1,.44.1.73.73,0,0,1,.29.37.76.76,0,0,1,0,.51.72.72,0,0,1-.31.38,4.15,4.15,0,0,1-.72.34l-1,.42-.59-1.44Z"/><polygon class="cls-20" points="66.58 123.82 66.29 122.89 63.52 123.76 62.09 119.22 60.98 119.58 62.7 125.05 66.58 123.82"/><polygon class="cls-20" points="68.51 123.37 67.09 117.76 65.96 118.04 67.36 123.65 68.51 123.37"/><path class="cls-20" d="M72.63,121.31a1.19,1.19,0,0,1-.74.43,1.26,1.26,0,0,1-1.09-.29,3.13,3.13,0,0,1-.53-3,1.35,1.35,0,0,1,1-.64,1.37,1.37,0,0,1,.83.12,1.25,1.25,0,0,1,.54.63l1.09-.48a2.31,2.31,0,0,0-.77-.94,2.41,2.41,0,0,0-1.81-.33A2.63,2.63,0,0,0,69.31,118a3.23,3.23,0,0,0-.35,2.34,3,3,0,0,0,1.12,2,2.73,2.73,0,0,0,3.44-.27,2.53,2.53,0,0,0,.59-1.55l-1.17-.14a1.8,1.8,0,0,1-.31,1Z"/><path class="cls-20" d="M78,116.1l-1.23.08-1.82,5.94,1.23-.09.39-1.35,2.32-.17.59,1.27,1.26-.09L78,116.1Zm-1.14,3.58.62-2.2,1,2.08Z"/><path class="cls-20" d="M85.68,121.83l2.18.26a3.88,3.88,0,0,0,1,0,2,2,0,0,0,.87-.36,2.76,2.76,0,0,0,.74-1,4.55,4.55,0,0,0,.31-1.2,4.36,4.36,0,0,0,0-1.37,2.52,2.52,0,0,0-.45-1,2,2,0,0,0-.8-.62,4.41,4.41,0,0,0-1.07-.24l-2.12-.24-.67,5.74Zm2.24-4.58a6.78,6.78,0,0,1,.94.16,1.14,1.14,0,0,1,.5.34,1.11,1.11,0,0,1,.26.59,3.17,3.17,0,0,1,0,1,3.68,3.68,0,0,1-.25,1,1,1,0,0,1-.36.51,1.07,1.07,0,0,1-.49.19,2.62,2.62,0,0,1-.71,0L87,121l.43-3.8Z"/><polygon class="cls-20" points="95.82 123.55 96.03 122.59 92.89 121.88 93.23 120.35 96.05 120.99 96.27 120.04 93.45 119.41 93.73 118.15 96.77 118.83 96.98 117.87 92.81 116.94 91.53 122.58 95.82 123.55"/><polygon class="cls-20" points="100.7 125.16 101.02 124.23 98.27 123.31 99.78 118.8 98.68 118.42 96.84 123.86 100.7 125.16"/><path class="cls-20" d="M106.58,127.94l1.09-1.89.65.37a6.27,6.27,0,0,0,1.09.54,1.83,1.83,0,0,0,.67.06,1.66,1.66,0,0,0,.71-.26,2.11,2.11,0,0,0,.88-1.82,1.48,1.48,0,0,0-.44-.9,6,6,0,0,0-1.17-.77l-1.62-.93-2.87,5,1,.58Zm2.88-3.89a4.51,4.51,0,0,1,.7.45.8.8,0,0,1,.28.46.76.76,0,0,1-.1.55.78.78,0,0,1-.33.32.88.88,0,0,1-.46.07,2.9,2.9,0,0,1-.84-.39l-.56-.31.82-1.43Z"/><polygon class="cls-20" points="113.8 132.67 114.36 131.88 111.76 130 112.67 128.73 115.02 130.42 115.59 129.63 113.25 127.94 114 126.89 116.52 128.71 117.09 127.92 113.62 125.42 110.23 130.1 113.8 132.67"/><path class="cls-20" d="M115.55,134.17l1.62-1.79.17.17a1.43,1.43,0,0,1,.39.44.73.73,0,0,1,.1.42,5.82,5.82,0,0,1-.11,1l-.22,1.49,1,.94.24-1.32a7.81,7.81,0,0,0,.15-1.13,2.82,2.82,0,0,0-.15-.78A1.86,1.86,0,0,0,120,134a1.75,1.75,0,0,0,1.43-1.39,1.28,1.28,0,0,0-.13-.86,4.05,4.05,0,0,0-.9-1l-1.82-1.65-3.88,4.29.87.78Zm3.22-3.56.68.61.62.58a.78.78,0,0,1,.17.47.68.68,0,0,1-.2.46.76.76,0,0,1-.38.24.55.55,0,0,1-.4,0,4.22,4.22,0,0,1-.84-.65l-.64-.58Z"/><path class="cls-20" d="M121,135.55a7.19,7.19,0,0,0-1,1.07,1.68,1.68,0,0,0-.26.67,1.87,1.87,0,0,0,.08.83,3.2,3.2,0,0,0,.69,1.07,2.93,2.93,0,0,0,.88.7,1.7,1.7,0,0,0,.79.19,1.53,1.53,0,0,0,.77-.23,7.12,7.12,0,0,0,1.17-.91l2.27-2-.78-.87-2.39,2.13a8,8,0,0,1-.76.63.88.88,0,0,1-.58.1,1.14,1.14,0,0,1-.64-.41,1.16,1.16,0,0,1-.35-.72.89.89,0,0,1,.18-.64c.09-.11.33-.34.69-.68l2.33-2.09-.77-.88-2.3,2.07Zm4.25-.67-.47-.52L126,134l.82.92Z"/><path class="cls-10" d="M349.59,181.08a.5.5,0,0,1-.1.31.52.52,0,0,1-.3.22,3.12,3.12,0,0,1-.57.12,5.26,5.26,0,0,1-.89.07,5.58,5.58,0,0,1-.9-.07,2.78,2.78,0,0,1-.57-.12.62.62,0,0,1-.31-.22.65.65,0,0,1-.08-.31V156h0l-10.29,25.23a.56.56,0,0,1-.18.27.89.89,0,0,1-.35.19,3.61,3.61,0,0,1-.57.11c-.2,0-.47,0-.77,0a5.56,5.56,0,0,1-.78-.05,2.55,2.55,0,0,1-.58-.12,1.19,1.19,0,0,1-.35-.2.72.72,0,0,1-.16-.24L322,156h0v25.12a.56.56,0,0,1-.09.31.54.54,0,0,1-.31.22,2.9,2.9,0,0,1-.58.12,5.43,5.43,0,0,1-.91.07,5.13,5.13,0,0,1-.88-.07,2.75,2.75,0,0,1-.58-.12.56.56,0,0,1-.29-.22.64.64,0,0,1-.07-.31V154.56a1.62,1.62,0,0,1,.48-1.33,1.74,1.74,0,0,1,1.1-.41h2.32a4.68,4.68,0,0,1,1.24.15,2.43,2.43,0,0,1,.94.41,2.4,2.4,0,0,1,.67.74,5.16,5.16,0,0,1,.46,1L333.82,176h.1l8.69-20.81a6.81,6.81,0,0,1,.53-1.14,3.23,3.23,0,0,1,.64-.75,2.07,2.07,0,0,1,.78-.4,3.55,3.55,0,0,1,1-.12H348a2,2,0,0,1,.64.11,1.07,1.07,0,0,1,.5.3,1.33,1.33,0,0,1,.35.54,2,2,0,0,1,.14.79Z"/><path class="cls-10" d="M360,181.11a.55.55,0,0,1-.08.29.73.73,0,0,1-.3.22,1.64,1.64,0,0,1-.54.13,7.88,7.88,0,0,1-.93.05,7.71,7.71,0,0,1-.9-.05,2,2,0,0,1-.56-.13.6.6,0,0,1-.28-.22.55.55,0,0,1-.09-.29V161a.52.52,0,0,1,.09-.28.55.55,0,0,1,.28-.23,2.44,2.44,0,0,1,.56-.13,6,6,0,0,1,.9-.05,6.19,6.19,0,0,1,.93.05,1.94,1.94,0,0,1,.54.13.67.67,0,0,1,.3.23.51.51,0,0,1,.08.28v20.07Zm.42-26.85a2.37,2.37,0,0,1-.49,1.77,3.66,3.66,0,0,1-3.57,0,2.36,2.36,0,0,1-.48-1.72,2.43,2.43,0,0,1,.49-1.77,2.64,2.64,0,0,1,1.81-.47,2.51,2.51,0,0,1,1.76.46A2.33,2.33,0,0,1,360.41,154.26Z"/><path class="cls-10" d="M383.55,181.11a.43.43,0,0,1-.1.29.65.65,0,0,1-.28.22,1.85,1.85,0,0,1-.56.13,7.28,7.28,0,0,1-.89.05,7.69,7.69,0,0,1-.92-.05,1.85,1.85,0,0,1-.56-.13.72.72,0,0,1-.28-.22.48.48,0,0,1-.1-.29V169.36a12.09,12.09,0,0,0-.26-2.77,5.57,5.57,0,0,0-.78-1.8,3.33,3.33,0,0,0-1.32-1.15,4.21,4.21,0,0,0-1.89-.42,4.78,4.78,0,0,0-2.76,1,14.74,14.74,0,0,0-2.9,2.88v14a.55.55,0,0,1-.08.29.85.85,0,0,1-.29.22,1.85,1.85,0,0,1-.57.13,7.27,7.27,0,0,1-.91.05,7.16,7.16,0,0,1-.89-.05,1.71,1.71,0,0,1-.56-.13.62.62,0,0,1-.3-.22.55.55,0,0,1-.08-.29V161a.78.78,0,0,1,.07-.31.86.86,0,0,1,.26-.21,1.28,1.28,0,0,1,.52-.13,6.21,6.21,0,0,1,.82,0,6.11,6.11,0,0,1,.82,0,1.11,1.11,0,0,1,.5.13,1,1,0,0,1,.26.21.79.79,0,0,1,.08.31v2.66a12.3,12.3,0,0,1,3.37-2.78,7.27,7.27,0,0,1,3.4-.88,7.59,7.59,0,0,1,3.38.68,6.18,6.18,0,0,1,2.21,1.82,7.41,7.41,0,0,1,1.22,2.65,16.35,16.35,0,0,1,.37,3.67Z"/><path class="cls-10" d="M393.41,181.11a.48.48,0,0,1-.09.29.63.63,0,0,1-.29.22,1.64,1.64,0,0,1-.55.13,7.69,7.69,0,0,1-.92.05,7.46,7.46,0,0,1-.9-.05,2,2,0,0,1-.56-.13.55.55,0,0,1-.28-.22.47.47,0,0,1-.08-.29V161a.44.44,0,0,1,.08-.28.51.51,0,0,1,.28-.23,2.44,2.44,0,0,1,.56-.13,5.84,5.84,0,0,1,.9-.05,6,6,0,0,1,.92.05,1.93,1.93,0,0,1,.55.13.58.58,0,0,1,.29.23.45.45,0,0,1,.09.28v20.07Zm.42-26.85a2.33,2.33,0,0,1-.49,1.77,2.58,2.58,0,0,1-1.8.47,2.54,2.54,0,0,1-1.77-.46,2.31,2.31,0,0,1-.48-1.72,2.39,2.39,0,0,1,.49-1.77,2.62,2.62,0,0,1,1.81-.47,2.5,2.5,0,0,1,1.75.46A2.24,2.24,0,0,1,393.83,154.26Z"/><path class="cls-10" d="M412.29,175.64a6.37,6.37,0,0,1-.57,2.73,5.78,5.78,0,0,1-1.63,2,7.37,7.37,0,0,1-2.49,1.25,11,11,0,0,1-3.17.43,13.42,13.42,0,0,1-2.06-.17,12.85,12.85,0,0,1-1.73-.43,9.93,9.93,0,0,1-1.3-.53,3.87,3.87,0,0,1-.78-.51,1.37,1.37,0,0,1-.37-.62,5,5,0,0,1-.11-1.1,4.73,4.73,0,0,1,.05-.71,1.71,1.71,0,0,1,.11-.47.45.45,0,0,1,.19-.25.57.57,0,0,1,.28-.08,1.56,1.56,0,0,1,.72.31c.32.2.72.41,1.19.65a10.42,10.42,0,0,0,1.66.66,7.34,7.34,0,0,0,2.21.3,6.37,6.37,0,0,0,1.69-.2,4.24,4.24,0,0,0,1.31-.58,3.13,3.13,0,0,0,.86-1,3.3,3.3,0,0,0,.3-1.43,2.3,2.3,0,0,0-.44-1.43,4.29,4.29,0,0,0-1.15-1,8.83,8.83,0,0,0-1.6-.79l-1.83-.72a17.51,17.51,0,0,1-1.86-.87,6.84,6.84,0,0,1-1.61-1.17,5.13,5.13,0,0,1-1.58-3.94,6,6,0,0,1,.45-2.26,5.4,5.4,0,0,1,1.37-1.89,7.18,7.18,0,0,1,2.28-1.31,9.76,9.76,0,0,1,3.21-.49,9.51,9.51,0,0,1,1.6.13,8.72,8.72,0,0,1,1.44.34,6,6,0,0,1,1.11.42,7.49,7.49,0,0,1,.7.42,3.17,3.17,0,0,1,.32.32,1.42,1.42,0,0,1,.1.29,3.84,3.84,0,0,1,.06.42,5.09,5.09,0,0,1,0,.6,6.25,6.25,0,0,1,0,.66,1.56,1.56,0,0,1-.11.45.51.51,0,0,1-.2.27.45.45,0,0,1-.23.08,1.2,1.2,0,0,1-.59-.26,9,9,0,0,0-1-.52,9.69,9.69,0,0,0-1.43-.52,6.47,6.47,0,0,0-1.85-.25,6.11,6.11,0,0,0-1.64.21,3.35,3.35,0,0,0-1.18.6,2.76,2.76,0,0,0-.69.94,2.91,2.91,0,0,0-.23,1.15,2.23,2.23,0,0,0,.45,1.46,4.16,4.16,0,0,0,1.15,1,9.9,9.9,0,0,0,1.63.8l1.86.74c.64.25,1.26.53,1.87.84a6.86,6.86,0,0,1,1.64,1.14,5.47,5.47,0,0,1,1.14,1.6A5.31,5.31,0,0,1,412.29,175.64Z"/><path class="cls-10" d="M426.94,179.63a6.23,6.23,0,0,1-.07,1,1.08,1.08,0,0,1-.28.56,1.73,1.73,0,0,1-.54.35,5.17,5.17,0,0,1-.81.25,8.87,8.87,0,0,1-1,.17,7,7,0,0,1-1,.07,7.89,7.89,0,0,1-2.67-.41,4.39,4.39,0,0,1-1.83-1.26,5.09,5.09,0,0,1-1-2.11,12.71,12.71,0,0,1-.32-3V163.51h-2.82a.58.58,0,0,1-.53-.36,2.59,2.59,0,0,1-.19-1.15,4.77,4.77,0,0,1,0-.72,2.2,2.2,0,0,1,.14-.47.56.56,0,0,1,.24-.26.58.58,0,0,1,.31-.08h2.8v-4.78a.53.53,0,0,1,.07-.28.79.79,0,0,1,.29-.24,1.65,1.65,0,0,1,.59-.14,6.75,6.75,0,0,1,.88-.05,7.82,7.82,0,0,1,.92.05,1.41,1.41,0,0,1,.54.14.93.93,0,0,1,.3.24.47.47,0,0,1,.09.28v4.78h5.16a.54.54,0,0,1,.3.08.53.53,0,0,1,.22.26,1.24,1.24,0,0,1,.16.47c0,.2,0,.43,0,.72a2.33,2.33,0,0,1-.19,1.15.56.56,0,0,1-.52.36h-5.16v11.2a6.28,6.28,0,0,0,.61,3.12,2.29,2.29,0,0,0,2.18,1.06,5.06,5.06,0,0,0,.93-.09c.26-.07.5-.15.71-.22s.39-.14.53-.21a1,1,0,0,1,.41-.11.4.4,0,0,1,.2.07c.08,0,.12.09.16.21a1.47,1.47,0,0,1,.11.42A6.19,6.19,0,0,1,426.94,179.63Z"/><path class="cls-10" d="M447.91,170.2a1.54,1.54,0,0,1-.43,1.24,1.45,1.45,0,0,1-1,.37H433.34a13,13,0,0,0,.34,3,5.5,5.5,0,0,0,1.12,2.3,5,5,0,0,0,2,1.47,8.09,8.09,0,0,0,3.06.51,10.91,10.91,0,0,0,2.54-.24,14.56,14.56,0,0,0,1.92-.51c.54-.2,1-.37,1.34-.52a2.19,2.19,0,0,1,.79-.24.54.54,0,0,1,.28.08.41.41,0,0,1,.19.23,1.36,1.36,0,0,1,.1.44c0,.17,0,.4,0,.67a2.64,2.64,0,0,1,0,.51,2,2,0,0,1-.06.37.68.68,0,0,1-.11.31,1.43,1.43,0,0,1-.19.24,3.17,3.17,0,0,1-.73.41,11.05,11.05,0,0,1-1.57.55,20.84,20.84,0,0,1-2.21.48,16.15,16.15,0,0,1-2.68.22,12.46,12.46,0,0,1-4.34-.7,8.42,8.42,0,0,1-3.13-2,8.93,8.93,0,0,1-1.91-3.41,15.73,15.73,0,0,1-.66-4.78,15.25,15.25,0,0,1,.68-4.65,9.74,9.74,0,0,1,1.92-3.49,8.41,8.41,0,0,1,3.05-2.21,9.78,9.78,0,0,1,4-.77,9.63,9.63,0,0,1,4,.76,7.39,7.39,0,0,1,2.72,2,8,8,0,0,1,1.57,3,13,13,0,0,1,.5,3.69v.67Zm-3.7-1.08a6.5,6.5,0,0,0-1.27-4.55,4.84,4.84,0,0,0-4-1.66,5.54,5.54,0,0,0-2.4.51,5.16,5.16,0,0,0-1.69,1.37,5.77,5.77,0,0,0-1.08,2,9.28,9.28,0,0,0-.43,2.37Z"/><path class="cls-10" d="M464.71,162.37c0,.32,0,.6,0,.81a2.48,2.48,0,0,1-.08.52.76.76,0,0,1-.17.3.4.4,0,0,1-.29.09,1.27,1.27,0,0,1-.42-.09c-.19-.07-.37-.14-.58-.2s-.46-.12-.72-.19a3.6,3.6,0,0,0-.88-.1,2.53,2.53,0,0,0-1.08.23,4.07,4.07,0,0,0-1.14.74,9,9,0,0,0-1.23,1.36c-.43.55-.91,1.25-1.42,2.06v13.21a.48.48,0,0,1-.1.29.81.81,0,0,1-.28.22,1.92,1.92,0,0,1-.57.13,7.45,7.45,0,0,1-.92.05,7.23,7.23,0,0,1-.88-.05,1.65,1.65,0,0,1-.56-.13.62.62,0,0,1-.3-.22.55.55,0,0,1-.08-.29V161a.78.78,0,0,1,.06-.31,1.1,1.1,0,0,1,.27-.21,1.37,1.37,0,0,1,.52-.13,6,6,0,0,1,.82,0,6.57,6.57,0,0,1,.83,0,1.14,1.14,0,0,1,.49.13.52.52,0,0,1,.34.52V164a15.48,15.48,0,0,1,1.53-2,9.21,9.21,0,0,1,1.38-1.19,4.16,4.16,0,0,1,1.29-.6,5.08,5.08,0,0,1,1.94-.13,5.66,5.66,0,0,1,.76.12,4.4,4.4,0,0,1,.72.2,1.78,1.78,0,0,1,.47.21.77.77,0,0,1,.17.22,2.07,2.07,0,0,1,.09.27c0,.09,0,.25,0,.45Z"/><path class="cls-10" d="M472.07,181.11a.42.42,0,0,1-.09.29.76.76,0,0,1-.29.22,1.78,1.78,0,0,1-.55.13,7.57,7.57,0,0,1-.92.05,7.77,7.77,0,0,1-.91-.05,1.85,1.85,0,0,1-.55-.13.63.63,0,0,1-.29-.22.47.47,0,0,1-.08-.29V161a.44.44,0,0,1,.08-.28.58.58,0,0,1,.29-.23,2.23,2.23,0,0,1,.55-.13,6.06,6.06,0,0,1,.91-.05,6,6,0,0,1,.92.05,2.12,2.12,0,0,1,.55.13.69.69,0,0,1,.29.23.39.39,0,0,1,.09.28v20.07Zm.43-26.85A2.37,2.37,0,0,1,472,156a2.58,2.58,0,0,1-1.8.47,2.61,2.61,0,0,1-1.78-.46,2.36,2.36,0,0,1-.48-1.72,2.39,2.39,0,0,1,.5-1.77,2.61,2.61,0,0,1,1.8-.47,2.56,2.56,0,0,1,1.77.46A2.33,2.33,0,0,1,472.5,154.26Z"/><path class="cls-10" d="M497,170.84a15.15,15.15,0,0,1-.63,4.52,9.94,9.94,0,0,1-1.93,3.56,8.64,8.64,0,0,1-3.21,2.32,11.14,11.14,0,0,1-4.47.85,11.74,11.74,0,0,1-4.31-.74,7.91,7.91,0,0,1-3.07-2.15,9.44,9.44,0,0,1-1.82-3.41,15.39,15.39,0,0,1-.6-4.53,15.67,15.67,0,0,1,.63-4.52,9.71,9.71,0,0,1,1.92-3.56,8.77,8.77,0,0,1,3.19-2.31,11.28,11.28,0,0,1,4.49-.83,11.58,11.58,0,0,1,4.31.73,8.21,8.21,0,0,1,3.07,2.14,9.46,9.46,0,0,1,1.82,3.41,15.12,15.12,0,0,1,.61,4.52Zm-3.86.26a15.1,15.1,0,0,0-.31-3.08,7.49,7.49,0,0,0-1-2.54,4.77,4.77,0,0,0-1.87-1.72,6.11,6.11,0,0,0-2.94-.65,6,6,0,0,0-2.79.59,5,5,0,0,0-1.93,1.63,7.27,7.27,0,0,0-1.13,2.52,13,13,0,0,0-.37,3.15,16.17,16.17,0,0,0,.3,3.11,7.08,7.08,0,0,0,1,2.52,5.27,5.27,0,0,0,1.87,1.73,7.11,7.11,0,0,0,5.74,0,5.23,5.23,0,0,0,1.94-1.63,7,7,0,0,0,1.12-2.5A13.62,13.62,0,0,0,493.13,171.1Z"/><path class="cls-10" d="M528.88,181.11a.45.45,0,0,1-.09.31.49.49,0,0,1-.25.21,2,2,0,0,1-.5.12,6,6,0,0,1-1.55,0,2,2,0,0,1-.51-.12.58.58,0,0,1-.28-.21.52.52,0,0,1-.1-.31v-2.66a13.24,13.24,0,0,1-3.28,2.67,7.41,7.41,0,0,1-3.73,1,7.59,7.59,0,0,1-3.77-.87,7.06,7.06,0,0,1-2.53-2.32,10.57,10.57,0,0,1-1.42-3.42,19.36,19.36,0,0,1-.44-4.16,18.32,18.32,0,0,1,.55-4.68,10.09,10.09,0,0,1,1.66-3.54,7.47,7.47,0,0,1,2.7-2.27,8.49,8.49,0,0,1,3.73-.79,6.76,6.76,0,0,1,3.23.77,11.53,11.53,0,0,1,2.89,2.26V151.41a.62.62,0,0,1,.07-.29.6.6,0,0,1,.31-.23,3.46,3.46,0,0,1,.55-.13,8.12,8.12,0,0,1,1.8,0,3.36,3.36,0,0,1,.56.13.89.89,0,0,1,.3.23.48.48,0,0,1,.1.29v29.7ZM525.19,167a15,15,0,0,0-2.89-2.81,5,5,0,0,0-2.91-1,4,4,0,0,0-2.39.67,4.89,4.89,0,0,0-1.58,1.76,7.88,7.88,0,0,0-.9,2.47,13.2,13.2,0,0,0-.28,2.81,18.1,18.1,0,0,0,.23,3,9,9,0,0,0,.81,2.58,5,5,0,0,0,1.54,1.8,4.06,4.06,0,0,0,2.41.68,4.48,4.48,0,0,0,1.42-.21,5.17,5.17,0,0,0,1.39-.67,10.59,10.59,0,0,0,1.49-1.2,21.81,21.81,0,0,0,1.66-1.85Z"/><path class="cls-10" d="M552.26,170.2a1.54,1.54,0,0,1-.42,1.24,1.49,1.49,0,0,1-1,.37H537.69a13,13,0,0,0,.34,3,5.63,5.63,0,0,0,1.12,2.3,5.07,5.07,0,0,0,2,1.47,8.13,8.13,0,0,0,3.06.51,11,11,0,0,0,2.54-.24,14.15,14.15,0,0,0,1.92-.51c.55-.2,1-.37,1.35-.52a2.08,2.08,0,0,1,.79-.24.56.56,0,0,1,.27.08.36.36,0,0,1,.18.23,1.33,1.33,0,0,1,.11.44,6.44,6.44,0,0,1,0,.67,3.94,3.94,0,0,1,0,.51,2.1,2.1,0,0,1,0,.37,1.42,1.42,0,0,1-.11.31,1.17,1.17,0,0,1-.21.24,2.81,2.81,0,0,1-.72.41,10.86,10.86,0,0,1-1.56.55,20.53,20.53,0,0,1-2.22.48,16.15,16.15,0,0,1-2.68.22,12.5,12.5,0,0,1-4.34-.7,8.22,8.22,0,0,1-3.12-2,9.25,9.25,0,0,1-1.94-3.41,16.76,16.76,0,0,1-.64-4.78,15.58,15.58,0,0,1,.67-4.65,9.78,9.78,0,0,1,1.94-3.49,8.29,8.29,0,0,1,3-2.21,9.8,9.8,0,0,1,4-.77,9.58,9.58,0,0,1,4,.76,7.43,7.43,0,0,1,2.73,2,7.86,7.86,0,0,1,1.57,3,13.32,13.32,0,0,1,.49,3.69v.67Zm-3.69-1.08a6.66,6.66,0,0,0-1.28-4.55,4.83,4.83,0,0,0-4-1.66,5,5,0,0,0-4.11,1.88,6.3,6.3,0,0,0-1.07,2,8.87,8.87,0,0,0-.43,2.37Z"/><path class="cls-10" d="M586.83,177.58c0,.24,0,.44,0,.63a2.55,2.55,0,0,1-.09.45,1.59,1.59,0,0,1-.14.37,2.29,2.29,0,0,1-.32.38,4.56,4.56,0,0,1-.93.67,10,10,0,0,1-1.77.9,14.79,14.79,0,0,1-2.42.73,13.45,13.45,0,0,1-3,.31,13.23,13.23,0,0,1-5.09-.94,10.53,10.53,0,0,1-3.86-2.76,12.89,12.89,0,0,1-2.44-4.52,20.37,20.37,0,0,1-.86-6.18,21,21,0,0,1,.92-6.4,13.75,13.75,0,0,1,2.6-4.75,11.31,11.31,0,0,1,4-3,12.71,12.71,0,0,1,5.16-1,12.21,12.21,0,0,1,2.43.24,15.81,15.81,0,0,1,2.19.59,9.4,9.4,0,0,1,1.77.83,4.59,4.59,0,0,1,1.08.77,2.46,2.46,0,0,1,.39.44,1.15,1.15,0,0,1,.14.38,2,2,0,0,1,.09.49,6.55,6.55,0,0,1,.05.7c0,.29,0,.54-.05.76a3,3,0,0,1-.13.52,1,1,0,0,1-.23.31.44.44,0,0,1-.29.1,1.65,1.65,0,0,1-.86-.42,14.21,14.21,0,0,0-1.44-1,11.77,11.77,0,0,0-2.15-1,9.23,9.23,0,0,0-3-.43,7.79,7.79,0,0,0-3.47.77,7,7,0,0,0-2.69,2.26,11,11,0,0,0-1.74,3.65,18.11,18.11,0,0,0-.6,4.9,17.87,17.87,0,0,0,.59,4.86,9.8,9.8,0,0,0,1.68,3.51A7.11,7.11,0,0,0,575,177.9a8.78,8.78,0,0,0,3.63.72,9.63,9.63,0,0,0,3-.41,11.59,11.59,0,0,0,2.19-1c.59-.36,1.1-.67,1.48-.95a1.83,1.83,0,0,1,.91-.43.42.42,0,0,1,.45.34,2.81,2.81,0,0,1,.1.52A6.54,6.54,0,0,1,586.83,177.58Z"/><path class="cls-10" d="M608.14,181.11a.41.41,0,0,1-.08.29.6.6,0,0,1-.28.22,1.51,1.51,0,0,1-.52.13,5.61,5.61,0,0,1-.79.05,6.25,6.25,0,0,1-.83-.05,1.64,1.64,0,0,1-.52-.13.48.48,0,0,1-.24-.22.54.54,0,0,1-.07-.29v-2.66a12.58,12.58,0,0,1-3.38,2.75,7.17,7.17,0,0,1-3.4.89,7.74,7.74,0,0,1-3.38-.67,6,6,0,0,1-2.2-1.82,7,7,0,0,1-1.22-2.69,15.61,15.61,0,0,1-.37-3.69V161a.55.55,0,0,1,.08-.31.83.83,0,0,1,.29-.21,1.55,1.55,0,0,1,.58-.13,7.31,7.31,0,0,1,.89,0,7.6,7.6,0,0,1,.9,0,1.36,1.36,0,0,1,.56.13,1.49,1.49,0,0,1,.31.21.65.65,0,0,1,.08.31v11.67a11.93,11.93,0,0,0,.26,2.83,5.19,5.19,0,0,0,.77,1.8,3.76,3.76,0,0,0,1.33,1.15,4,4,0,0,0,1.88.43,4.62,4.62,0,0,0,2.74-1,15.25,15.25,0,0,0,2.92-2.87V161a.64.64,0,0,1,.07-.31,1,1,0,0,1,.31-.21,1.49,1.49,0,0,1,.56-.13,7.28,7.28,0,0,1,.9,0,7.6,7.6,0,0,1,.9,0,1.27,1.27,0,0,1,.55.13,1.38,1.38,0,0,1,.3.21.5.5,0,0,1,.1.31Z"/><path class="cls-10" d="M618.11,181.11a.44.44,0,0,1-.11.29.6.6,0,0,1-.28.22,1.78,1.78,0,0,1-.55.13,7.75,7.75,0,0,1-.93.05,7,7,0,0,1-.87-.05,1.71,1.71,0,0,1-.57-.13.57.57,0,0,1-.3-.22.55.55,0,0,1-.08-.29V151.33a.51.51,0,0,1,.08-.3.5.5,0,0,1,.3-.24,1.75,1.75,0,0,1,.57-.12,5.39,5.39,0,0,1,.87-.06,5.94,5.94,0,0,1,.93.06,1.8,1.8,0,0,1,.55.12.52.52,0,0,1,.28.24.41.41,0,0,1,.11.3Z"/><path class="cls-10" d="M634.81,179.63a3.41,3.41,0,0,1-.1,1,.89.89,0,0,1-.27.56,1.73,1.73,0,0,1-.52.35,4.7,4.7,0,0,1-.82.25,8.46,8.46,0,0,1-1,.17,6.81,6.81,0,0,1-1,.07,7.91,7.91,0,0,1-2.68-.41,4.36,4.36,0,0,1-1.82-1.26,5,5,0,0,1-1-2.11,11.72,11.72,0,0,1-.33-3V163.51h-2.8a.59.59,0,0,1-.55-.36,2.43,2.43,0,0,1-.2-1.15,3.66,3.66,0,0,1,.06-.72,2.2,2.2,0,0,1,.14-.47.56.56,0,0,1,.24-.26.62.62,0,0,1,.33-.08h2.78v-4.78a.46.46,0,0,1,.08-.28.62.62,0,0,1,.28-.24,1.59,1.59,0,0,1,.58-.14,8.12,8.12,0,0,1,1.8,0,1.52,1.52,0,0,1,.56.14.68.68,0,0,1,.28.24.41.41,0,0,1,.09.28v4.78h5.16a.58.58,0,0,1,.31.08.68.68,0,0,1,.24.26,1.46,1.46,0,0,1,.13.47,4.77,4.77,0,0,1,0,.72,2.31,2.31,0,0,1-.2,1.15.59.59,0,0,1-.53.36h-5.16v11.2a6.25,6.25,0,0,0,.63,3.12,2.29,2.29,0,0,0,2.19,1.06,4.72,4.72,0,0,0,.9-.09c.27-.07.52-.15.72-.22s.38-.14.53-.21a1,1,0,0,1,.39-.11.42.42,0,0,1,.23.07.3.3,0,0,1,.16.21,3.19,3.19,0,0,1,.09.42A4.08,4.08,0,0,1,634.81,179.63Z"/><path class="cls-10" d="M656.33,181.11a.54.54,0,0,1-.07.29.76.76,0,0,1-.27.22,1.78,1.78,0,0,1-.55.13,5.5,5.5,0,0,1-.79.05,6.25,6.25,0,0,1-.83-.05,1.73,1.73,0,0,1-.51-.13.65.65,0,0,1-.26-.22.65.65,0,0,1-.07-.29v-2.66a12.28,12.28,0,0,1-3.38,2.75,7,7,0,0,1-3.38.89,7.8,7.8,0,0,1-3.38-.67,6.22,6.22,0,0,1-2.22-1.82,7.42,7.42,0,0,1-1.21-2.69,16.16,16.16,0,0,1-.37-3.69V161a.78.78,0,0,1,.07-.31,1.26,1.26,0,0,1,.31-.21,1.47,1.47,0,0,1,.59-.13,7.31,7.31,0,0,1,.89,0,6.85,6.85,0,0,1,.87,0,1.38,1.38,0,0,1,.58.13,1.17,1.17,0,0,1,.3.21.57.57,0,0,1,.1.31v11.67a12,12,0,0,0,.25,2.83,5.19,5.19,0,0,0,.78,1.8,3.57,3.57,0,0,0,1.32,1.15,4,4,0,0,0,1.87.43,4.65,4.65,0,0,0,2.76-1,15.83,15.83,0,0,0,2.91-2.87V161a.55.55,0,0,1,.08-.31.83.83,0,0,1,.29-.21,1.44,1.44,0,0,1,.56-.13,10.26,10.26,0,0,1,1.81,0,1.4,1.4,0,0,1,.56.13,1.08,1.08,0,0,1,.29.21.5.5,0,0,1,.1.31Z"/><path class="cls-10" d="M674.33,162.37c0,.32,0,.6,0,.81a2.61,2.61,0,0,1-.07.52.67.67,0,0,1-.18.3.37.37,0,0,1-.27.09,1.37,1.37,0,0,1-.44-.09c-.17-.07-.37-.14-.57-.2s-.45-.12-.73-.19a3.46,3.46,0,0,0-.87-.1,2.6,2.6,0,0,0-1.09.23,3.86,3.86,0,0,0-1.12.74,8.08,8.08,0,0,0-1.25,1.36c-.42.55-.9,1.25-1.42,2.06v13.21a.47.47,0,0,1-.08.29.81.81,0,0,1-.3.22,1.78,1.78,0,0,1-.55.13,7.69,7.69,0,0,1-.92.05,7.46,7.46,0,0,1-.9-.05,1.71,1.71,0,0,1-.56-.13.6.6,0,0,1-.28-.22.47.47,0,0,1-.08-.29V161a.78.78,0,0,1,.06-.31,1,1,0,0,1,.26-.21,1.33,1.33,0,0,1,.53-.13,6,6,0,0,1,.82,0,6,6,0,0,1,.81,0,1,1,0,0,1,.49.13,1.84,1.84,0,0,1,.28.21.78.78,0,0,1,.06.31V164a15.41,15.41,0,0,1,1.55-2,8.71,8.71,0,0,1,1.37-1.19,4.11,4.11,0,0,1,1.28-.6,5.71,5.71,0,0,1,1.29-.17,5.14,5.14,0,0,1,.65,0,5,5,0,0,1,.76.12,3.69,3.69,0,0,1,.72.2,1.64,1.64,0,0,1,.47.21.9.9,0,0,1,.19.22,1.43,1.43,0,0,1,.07.27,2.23,2.23,0,0,1,0,.45C674.33,161.74,674.33,162,674.33,162.37Z"/><path class="cls-10" d="M692.18,181.12a.49.49,0,0,1-.17.4,1.15,1.15,0,0,1-.5.21,5,5,0,0,1-.9.07,5.64,5.64,0,0,1-.94-.07.9.9,0,0,1-.49-.21.45.45,0,0,1-.15-.4v-2a10,10,0,0,1-2.94,2.18,7.63,7.63,0,0,1-3.42.79,9.21,9.21,0,0,1-2.87-.42,6.19,6.19,0,0,1-2.18-1.19,5.08,5.08,0,0,1-1.4-1.92,6.45,6.45,0,0,1-.5-2.58,5.53,5.53,0,0,1,2.66-5,10,10,0,0,1,3.17-1.24,20.1,20.1,0,0,1,4.22-.4h2.75v-1.57a8.59,8.59,0,0,0-.23-2.06,3.79,3.79,0,0,0-.8-1.47,3.26,3.26,0,0,0-1.42-.89,6.5,6.5,0,0,0-2.13-.3,8.69,8.69,0,0,0-2.44.32,15,15,0,0,0-1.9.71c-.53.26-1,.5-1.35.71a1.65,1.65,0,0,1-.83.32.54.54,0,0,1-.3-.08.6.6,0,0,1-.25-.27,1.88,1.88,0,0,1-.13-.45,3,3,0,0,1,0-.61,4.09,4.09,0,0,1,.08-.89,1.4,1.4,0,0,1,.38-.61,4.2,4.2,0,0,1,1-.68,13.41,13.41,0,0,1,1.68-.73,21.49,21.49,0,0,1,2.1-.52,12.7,12.7,0,0,1,2.3-.21,12.33,12.33,0,0,1,3.68.49,6.14,6.14,0,0,1,2.44,1.43,5.68,5.68,0,0,1,1.37,2.36,11.1,11.1,0,0,1,.42,3.27v13.53ZM688.52,172h-3.15a11.85,11.85,0,0,0-2.61.25,5.88,5.88,0,0,0-1.86.75,3.33,3.33,0,0,0-1.08,1.21,3.77,3.77,0,0,0-.33,1.61,3.25,3.25,0,0,0,1,2.49,3.91,3.91,0,0,0,2.76.92,5.1,5.1,0,0,0,2.7-.74,11.63,11.63,0,0,0,2.58-2.24Z"/><path class="cls-10" d="M193,161.73a11.67,11.67,0,0,1-.8,4.41,9.33,9.33,0,0,1-2.32,3.36,10.49,10.49,0,0,1-3.68,2.15,16,16,0,0,1-5.2.75h-3.71v11.76a.72.72,0,0,1-.11.35.94.94,0,0,1-.35.24,3,3,0,0,1-.67.14,5.94,5.94,0,0,1-1,.08,6.28,6.28,0,0,1-1.06-.08,3,3,0,0,1-.66-.14.7.7,0,0,1-.35-.24.63.63,0,0,1-.11-.35V154a1.74,1.74,0,0,1,.53-1.43,1.82,1.82,0,0,1,1.19-.43h7a19,19,0,0,1,2,.08,22,22,0,0,1,2.3.37,10.41,10.41,0,0,1,2.7,1.09,8.91,8.91,0,0,1,2.34,2,8.63,8.63,0,0,1,1.47,2.69,10.55,10.55,0,0,1,.51,3.37Zm-4.56.35a6.66,6.66,0,0,0-.75-3.32,5,5,0,0,0-1.85-2,5.69,5.69,0,0,0-2.26-.83,15,15,0,0,0-2.28-.19h-4v13.1h3.91a9.23,9.23,0,0,0,3.26-.5,6.13,6.13,0,0,0,2.19-1.41,5.83,5.83,0,0,0,1.33-2.15A7.85,7.85,0,0,0,188.39,162.08Z"/><path class="cls-10" d="M215.14,183a4.74,4.74,0,0,1-.06.8,1.61,1.61,0,0,1-.17.56.87.87,0,0,1-.29.33.65.65,0,0,1-.36.1H198.58a1.78,1.78,0,0,1-1.09-.39,1.62,1.62,0,0,1-.52-1.37V153.93a1.67,1.67,0,0,1,.52-1.38,1.76,1.76,0,0,1,1.09-.38h15.49a.66.66,0,0,1,.37.09.73.73,0,0,1,.27.34,3.17,3.17,0,0,1,.17.56,6.37,6.37,0,0,1,.06.85,5.79,5.79,0,0,1-.06.79,3.17,3.17,0,0,1-.17.56.75.75,0,0,1-.27.31.66.66,0,0,1-.37.1H201.31V166h10.94a.64.64,0,0,1,.38.12,1.18,1.18,0,0,1,.27.31,1.69,1.69,0,0,1,.17.56,6.67,6.67,0,0,1,0,.83,5.85,5.85,0,0,1,0,.78,1.64,1.64,0,0,1-.17.54.81.81,0,0,1-.27.28.69.69,0,0,1-.38.09H201.31v11.69h12.95a.65.65,0,0,1,.36.1.88.88,0,0,1,.29.31,1.49,1.49,0,0,1,.17.55A5,5,0,0,1,215.14,183Z"/><path class="cls-10" d="M241.36,184.16a.82.82,0,0,1-.08.35.66.66,0,0,1-.32.25,3,3,0,0,1-.72.16c-.3,0-.7.05-1.2.05a10.31,10.31,0,0,1-1.08-.05,2.82,2.82,0,0,1-.67-.17.94.94,0,0,1-.39-.32,1.73,1.73,0,0,1-.24-.51l-3-7.69a24.74,24.74,0,0,0-1.1-2.41,7.59,7.59,0,0,0-1.35-1.89,5.41,5.41,0,0,0-1.84-1.23,6.47,6.47,0,0,0-2.55-.44h-2.89v13.9a.63.63,0,0,1-.11.35,1,1,0,0,1-.35.24,3.11,3.11,0,0,1-.67.14,5.94,5.94,0,0,1-1,.08,6.28,6.28,0,0,1-1.06-.08,2.88,2.88,0,0,1-.66-.14.65.65,0,0,1-.35-.24.63.63,0,0,1-.11-.35V153.93a1.64,1.64,0,0,1,.53-1.38,1.74,1.74,0,0,1,1.09-.38h6.94c.82,0,1.51,0,2.05.05s1,.1,1.48.14a12.48,12.48,0,0,1,3.34,1,7.54,7.54,0,0,1,2.43,1.78,7.37,7.37,0,0,1,1.48,2.48,9,9,0,0,1,.5,3.1,8.73,8.73,0,0,1-.45,2.94,6.85,6.85,0,0,1-1.28,2.29,8,8,0,0,1-2,1.73,12.16,12.16,0,0,1-2.59,1.23,6.37,6.37,0,0,1,1.46.9,7.26,7.26,0,0,1,1.22,1.3,11.94,11.94,0,0,1,1.08,1.75c.34.64.67,1.39,1,2.21l2.93,7.2c.22.6.38,1,.45,1.27a2.62,2.62,0,0,1,.1.57Zm-6.54-22.93A5.85,5.85,0,0,0,234,158a4.93,4.93,0,0,0-2.88-1.91,8,8,0,0,0-1.43-.24,19,19,0,0,0-2.07-.09h-3.66v11h4.23a9.88,9.88,0,0,0,3-.41,6.19,6.19,0,0,0,2.09-1.17,4.51,4.51,0,0,0,1.22-1.75A6,6,0,0,0,234.82,161.23Z"/><path class="cls-10" d="M269.57,172.75a14.89,14.89,0,0,1-.88,5.31,10.68,10.68,0,0,1-2.48,3.95,10.49,10.49,0,0,1-3.93,2.45,15.71,15.71,0,0,1-5.27.83,15,15,0,0,1-4.92-.78,10.4,10.4,0,0,1-3.81-2.3,10.22,10.22,0,0,1-2.45-3.83,15,15,0,0,1-.86-5.31V152.82a.63.63,0,0,1,.11-.35.57.57,0,0,1,.35-.25c.16-.05.39-.09.65-.14a6.08,6.08,0,0,1,1.06-.07,6.22,6.22,0,0,1,1,.07c.28,0,.5.09.67.14a.62.62,0,0,1,.33.25.56.56,0,0,1,.11.35v19.73a13,13,0,0,0,.55,4,7.18,7.18,0,0,0,1.61,2.81A6.62,6.62,0,0,0,254,181a10.36,10.36,0,0,0,6.69,0,6.44,6.44,0,0,0,2.5-1.67,7.42,7.42,0,0,0,1.56-2.74,12.06,12.06,0,0,0,.55-3.84v-20a.61.61,0,0,1,.09-.35.67.67,0,0,1,.36-.25c.17-.05.39-.09.66-.14a6.27,6.27,0,0,1,1.05-.07,6,6,0,0,1,1,.07,6.27,6.27,0,0,1,.65.14.68.68,0,0,1,.35.25.57.57,0,0,1,.12.35v19.93Zm-9.69-29.6a2.77,2.77,0,0,1,.55-.5,2.6,2.6,0,0,1,.58-.28,3.52,3.52,0,0,1,.79-.13c.3,0,.66,0,1.08,0a5.15,5.15,0,0,1,1.19.11,1.57,1.57,0,0,1,.61.29.42.42,0,0,1,.11.41,1.23,1.23,0,0,1-.29.47l-5.72,5.36a3.58,3.58,0,0,1-.48.39,2.48,2.48,0,0,1-.49.22,2.69,2.69,0,0,1-.63.13,7.93,7.93,0,0,1-.9,0,5.47,5.47,0,0,1-.92-.06.86.86,0,0,1-.45-.22.32.32,0,0,1-.07-.33,1.17,1.17,0,0,1,.28-.48Z"/><path class="cls-43" d="M80.64,130.5c3.52-1.27,4,1.06,5.59,1.18C84.09,132.81,81.89,130.61,80.64,130.5Z"/><path class="cls-44" d="M80.64,130.5c3.52-1.27,4,1.06,5.59,1.18C84.09,132.81,81.89,130.61,80.64,130.5Z"/><path class="cls-43" d="M84,129.82c4-.41,3.89,2.14,5.49,2.65C87,133.11,85.27,130.26,84,129.82Z"/><path class="cls-44" d="M84,129.82c4-.41,3.89,2.14,5.49,2.65C87,133.11,85.27,130.26,84,129.82Z"/><path class="cls-44" d="M79.3,134.46c3.61,2.08,4.64-.38,6.39-.2C83.57,132.59,80.69,134.59,79.3,134.46Z"/><path class="cls-44" d="M84,135.25c3.11,2.75,4.63.53,6.31,1.05C88.55,134.26,85.33,135.64,84,135.25Z"/><path class="cls-45" d="M79,132.2c3.45,2.34,4.43,1,7.11.53C83.29,131.52,81.35,131.29,79,132.2Z"/><path class="cls-44" d="M79,132.2c3.45,2.34,4.43,1,7.11.53C83.29,131.52,81.35,131.29,79,132.2Z"/><path class="cls-44" d="M84.58,132.29c2.37,3.36,2.66,1.94,5.34,2.42C87.73,132.62,87.12,132.23,84.58,132.29Z"/><path class="cls-44" d="M88.85,131.86c5,1.74,3.13,4.26,4.67,5.65C90.12,136.78,90,133,88.85,131.86Z"/><path class="cls-44" d="M89.14,135.74c-.15,2.87,2.15,3.1,4.68,4.67C93.13,138.27,92,137,89.14,135.74Z"/><path class="cls-44" d="M94,134.79c2.43,4.57-.69,5.19-.54,7.23C91.51,139.24,94.13,136.41,94,134.79Z"/><path class="cls-44" d="M88.29,138.46c1.32,3.88,2,2.58,4.43,3.78C91.23,139.64,90.75,139.1,88.29,138.46Z"/><path class="cls-44" d="M93.87,147.07c-2-4.86,1.77-5,2-7.06C97.66,143,94.06,145.47,93.87,147.07Z"/><path class="cls-43" d="M90.1,148c3.8-3.13.38-4.45,1-6.08C88.22,143.64,90.56,146.64,90.1,148Z"/><path class="cls-44" d="M90.1,148c3.8-3.13.38-4.45,1-6.08C88.22,143.64,90.56,146.64,90.1,148Z"/><path class="cls-45" d="M93.3,141c-2.65,3.17-1.15,3-.87,5.66C93.87,144,94.08,143.31,93.3,141Z"/><path class="cls-44" d="M93.3,141c-2.65,3.17-1.15,3-.87,5.66C93.87,144,94.08,143.31,93.3,141Z"/><path class="cls-44" d="M90.21,148.85c1.85-4.29,4.68-2.41,6.2-3.66C95.66,148.17,91.44,147.89,90.21,148.85Z"/><path class="cls-44" d="M87.37,148.83c1.72-2.74,2.59-2.16,4.64-2.24C90.18,149,88.84,149.5,87.37,148.83Z"/><path class="cls-43" d="M85.92,149.57c3.52-3.17,5.28-.32,7.19-.85C91.15,151.13,87.45,149.18,85.92,149.57Z"/><path class="cls-44" d="M85.92,149.57c3.52-3.17,5.28-.32,7.19-.85C91.15,151.13,87.45,149.18,85.92,149.57Z"/><path class="cls-43" d="M84.47,148.58c1.39-4.92,4.72-2.35,6.17-3.67C90.26,148.39,85.65,147.57,84.47,148.58Z"/><path class="cls-44" d="M84.47,148.58c1.39-4.92,4.72-2.35,6.17-3.67C90.26,148.39,85.65,147.57,84.47,148.58Z"/><path class="cls-44" d="M83.23,150.05c2.35-2.24,3.06-1.48,5.06-1.07C85.91,150.84,84.47,151.05,83.23,150.05Z"/><path class="cls-44" d="M79.58,150.65c1.39-4.93,4.71-2.35,6.17-3.68C85.37,150.46,80.77,149.63,79.58,150.65Z"/><path class="cls-45" d="M80.35,151c4-2.65,5.27.41,7.24.16C85.29,153.24,81.91,150.79,80.35,151Z"/><path class="cls-44" d="M80.35,151c4-2.65,5.27.41,7.24.16C85.29,153.24,81.91,150.79,80.35,151Z"/><path class="cls-44" d="M77.47,130.9c-3.52-1.26-4,1.07-5.6,1.17C74,133.21,76.22,131,77.47,130.9Z"/><path class="cls-46" d="M74.8,130.23c-4-.42-3.88,2.13-5.48,2.65C71.85,133.51,73.53,130.66,74.8,130.23Z"/><path class="cls-44" d="M74.8,130.23c-4-.42-3.88,2.13-5.48,2.65C71.85,133.51,73.53,130.66,74.8,130.23Z"/><path class="cls-43" d="M79.51,134.86c-3.61,2.09-4.65-.39-6.4-.2C75.23,133,78.11,135,79.51,134.86Z"/><path class="cls-44" d="M79.51,134.86c-3.61,2.09-4.65-.39-6.4-.2C75.23,133,78.11,135,79.51,134.86Z"/><path class="cls-44" d="M74.82,135.65c-3.11,2.75-4.62.53-6.31,1.06C70.24,134.65,73.48,136,74.82,135.65Z"/><path class="cls-43" d="M79.81,132.61c-3.44,2.32-4.42,1-7.11.52C75.52,131.93,77.46,131.69,79.81,132.61Z"/><path class="cls-44" d="M79.81,132.61c-3.44,2.32-4.42,1-7.11.52C75.52,131.93,77.46,131.69,79.81,132.61Z"/><path class="cls-43" d="M74.23,132.69c-2.38,3.36-2.67,1.94-5.34,2.42C71.07,133,71.69,132.64,74.23,132.69Z"/><path class="cls-44" d="M74.23,132.69c-2.38,3.36-2.67,1.94-5.34,2.42C71.07,133,71.69,132.64,74.23,132.69Z"/><path class="cls-44" d="M70,132.26c-5,1.74-3.14,4.26-4.69,5.66C68.69,137.19,68.76,133.39,70,132.26Z"/><path class="cls-43" d="M69.66,136.14c.15,2.87-2.14,3.1-4.68,4.67C65.67,138.67,66.84,137.37,69.66,136.14Z"/><path class="cls-44" d="M69.66,136.14c.15,2.87-2.14,3.1-4.68,4.67C65.67,138.67,66.84,137.37,69.66,136.14Z"/><path class="cls-43" d="M65.37,135.68c-3.61,3.76-.79,5.19-1.49,7.11C66.56,140.63,64.83,137.22,65.37,135.68Z"/><path class="cls-44" d="M65.37,135.68c-3.61,3.76-.79,5.19-1.49,7.11C66.56,140.63,64.83,137.22,65.37,135.68Z"/><path class="cls-44" d="M70.21,138.5c-.71,4-1.59,2.84-3.81,4.36C67.49,140.08,67.88,139.47,70.21,138.5Z"/><path class="cls-44" d="M64.83,146.62c2-4.87-1.77-5-2-7.07C61,142.6,64.64,145,64.83,146.62Z"/><path class="cls-44" d="M68.12,148.2c-2.94-3.89.7-4.41.46-6.14C71,144.43,68,146.82,68.12,148.2Z"/><path class="cls-44" d="M65.51,141.36c2.64,3.17,1.15,3,.87,5.65C64.94,144.38,64.73,143.7,65.51,141.36Z"/><path class="cls-44" d="M68.48,149.52c-1.41-4.45-4.41-2.84-5.79-4.22C63.13,148.33,67.36,148.43,68.48,149.52Z"/><path class="cls-43" d="M71.44,149.23c-1.72-2.74-2.59-2.16-4.64-2.24C68.63,149.36,70,149.91,71.44,149.23Z"/><path class="cls-44" d="M71.44,149.23c-1.72-2.74-2.59-2.16-4.64-2.24C68.63,149.36,70,149.91,71.44,149.23Z"/><path class="cls-43" d="M72.89,150c-3.52-3.17-5.28-.31-7.2-.84C67.65,151.54,71.36,149.58,72.89,150Z"/><path class="cls-44" d="M72.89,150c-3.52-3.17-5.28-.31-7.2-.84C67.65,151.54,71.36,149.58,72.89,150Z"/><path class="cls-44" d="M72.18,150.1c1.8-4.16-2-4.13-2.23-5.82C68.27,146.91,71.93,148.76,72.18,150.1Z"/><path class="cls-44" d="M75.58,150.45c-2.35-2.25-3.06-1.49-5.06-1.07C72.89,151.24,74.34,151.45,75.58,150.45Z"/><path class="cls-44" d="M79.23,151.05c-1.39-4.91-4.71-2.35-6.17-3.67C73.43,150.85,78,150,79.23,151.05Z"/><path class="cls-44" d="M78.46,151.35c-3.95-2.64-5.27.42-7.24.17C73.51,153.64,76.88,151.18,78.46,151.35Z"/><path class="cls-46" d="M80.51,130.69c-3.4,2.39-3.18,1-5.86.55C77.43,130,78.14,129.82,80.51,130.69Z"/><path class="cls-44" d="M80.51,130.69c-3.4,2.39-3.18,1-5.86.55C77.43,130,78.14,129.82,80.51,130.69Z"/><polygon class="cls-42" points="122.81 145.49 123.31 142.83 126.15 141.78 125.91 144.85 122.81 145.49"/><path class="cls-47" d="M122.81,145.49c.11-.9.24-1.79.38-2.68v-.06l.07,0c.93-.39,1.88-.73,2.82-1.1l.25-.09,0,.27q-.12,1.53-.27,3.06V145l-.1,0C124.9,145.17,123.86,145.35,122.81,145.49Zm0,0c1-.29,2-.53,3.07-.77l-.11.12c.06-1,.13-2.05.21-3.07l.23.17c-.95.34-1.9.7-2.86,1l.08-.09C123.24,143.74,123,144.61,122.81,145.49Z"/><path class="cls-47" d="M123.45,144.8s.13-.2.34-.48.51-.64.82-1,.65-.67.91-.9.45-.38.45-.38-.13.21-.34.48-.51.64-.82,1-.65.67-.91.9S123.45,144.8,123.45,144.8Z"/><ellipse class="cls-47" cx="122.91" cy="145.17" rx="0.84" ry="0.81"/><ellipse class="cls-48" cx="122.91" cy="145.17" rx="0.61" ry="0.58"/><polygon class="cls-42" points="112.85 142.28 113.35 139.63 116.19 138.58 115.95 141.65 112.85 142.28"/><path class="cls-47" d="M112.85,142.28c.1-.89.24-1.78.38-2.67v-.07l.07,0c.93-.39,1.88-.73,2.82-1.1l.25-.1,0,.28c-.08,1-.18,2-.28,3.06v.11H116C114.94,142,113.9,142.15,112.85,142.28Zm0,0c1-.28,2-.53,3.07-.77l-.11.13c.06-1,.13-2,.21-3.07l.23.17c-1,.34-1.9.7-2.86,1l.08-.1C113.28,140.53,113.08,141.41,112.85,142.28Z"/><path class="cls-47" d="M113.49,141.59a5.19,5.19,0,0,1,.34-.48c.21-.28.51-.63.82-1s.65-.67.91-.9.45-.38.45-.38-.13.2-.34.48-.52.63-.82,1-.65.67-.91.91S113.49,141.59,113.49,141.59Z"/><ellipse class="cls-47" cx="112.95" cy="141.96" rx="0.84" ry="0.81"/><path class="cls-42" d="M113.56,142a.61.61,0,0,1-1.21,0,.61.61,0,0,1,1.21,0Z"/><polygon class="cls-42" points="36.81 145.49 36.31 142.83 33.47 141.78 33.71 144.85 36.81 145.49"/><path class="cls-47" d="M36.81,145.49c-.23-.88-.43-1.75-.62-2.63l.08.09c-1-.31-1.91-.67-2.86-1l.23-.17c.08,1,.15,2,.21,3.07l-.11-.12C34.77,145,35.79,145.2,36.81,145.49Zm0,0c-1.05-.14-2.09-.32-3.13-.5l-.1,0v-.11q-.15-1.53-.27-3.06l0-.27.26.09c.94.37,1.89.71,2.82,1.1l.07,0v.06C36.57,143.7,36.7,144.59,36.81,145.49Z"/><path class="cls-47" d="M36.17,144.8s-.13-.2-.34-.48-.51-.64-.82-1-.65-.67-.91-.9-.45-.38-.45-.38.13.21.34.48.51.64.82,1,.65.67.91.9S36.17,144.8,36.17,144.8Z"/><ellipse class="cls-47" cx="36.7" cy="145.17" rx="0.84" ry="0.81"/><path class="cls-42" d="M36.1,145.17a.61.61,0,1,0,.6-.59A.59.59,0,0,0,36.1,145.17Z"/><polygon class="cls-42" points="46.77 142.28 46.27 139.63 43.43 138.58 43.67 141.65 46.77 142.28"/><path class="cls-47" d="M46.77,142.28c-.23-.87-.43-1.75-.62-2.63l.08.1c-1-.31-1.91-.67-2.86-1l.23-.17c.08,1,.15,2,.21,3.07l-.11-.13C44.73,141.75,45.75,142,46.77,142.28Zm0,0c-1.05-.13-2.09-.31-3.13-.5h-.1v-.11q-.15-1.53-.27-3.06l0-.28.25.1c.94.37,1.89.71,2.82,1.1l.07,0v.07C46.53,140.5,46.66,141.39,46.77,142.28Z"/><path class="cls-47" d="M46.13,141.59s-.13-.2-.34-.48-.51-.63-.82-1-.65-.67-.91-.9-.45-.38-.45-.38.13.2.34.48.51.63.82,1,.65.67.91.91S46.13,141.59,46.13,141.59Z"/><ellipse class="cls-47" cx="46.67" cy="141.96" rx="0.84" ry="0.81"/><path class="cls-42" d="M46.06,142a.61.61,0,0,0,1.21,0,.61.61,0,0,0-1.21,0Z"/></g></g></svg>