<svg xmlns="http://www.w3.org/2000/svg" viewBox="0 0 110 75"><defs><style>.cls-1{fill:none;}</style></defs><g id="Layer_2" data-name="Layer 2"><g id="header_footer" data-name="header/footer"><polygon points="85.16 61.23 66.09 51.84 68.01 47.99 87.06 57.37 88.04 60.19 85.16 61.23"/><polygon points="35.12 75 26.63 75 17.49 49.71 43.63 61.15 35.12 75"/><polygon points="94.39 62.66 60.48 75 75.73 75 96.39 67.48 94.39 62.66"/><path d="M9.53,40.58,51.46,59.1A4.37,4.37,0,0,0,57.15,57L77.37,15.89l17,46.77,4.88-1.87L80.61,9.55a3.87,3.87,0,0,0-5-2.32L5.28,32.85a3.87,3.87,0,0,0-2.31,5L16.51,75h5.54Zm63-26.66L52.83,54,12,36Z"/><rect class="cls-1" width="110" height="75"/></g></g></svg>