<svg xmlns="http://www.w3.org/2000/svg" viewBox="0 0 110 75.18"><defs><style>.cls-1{fill:none;}</style></defs><g id="Layer_2" data-name="Layer 2"><g id="header_footer" data-name="header/footer"><path d="M87.92,75.18c0-4-5.67-10.57-5.63-13.17-4-.58-12.89-1.28-18.35-8.83-8.3-11.45-1.12-27.61,13.53-30l2.43-6.75c-4.28-1.26-11-1-15.43-.08-.95.21-1.45,0-2.26-1.19-1.21-1.79-8-8.61-11-8.61-.29,6.32-6.51,13.33-13,16.13-1.34,5-2.43,10.28-3.78,11-.85.48-3.65.32-6.34-.77-3.54,4.79,5,13.73,5.94,14.92,9.5,12.73,15.37,21.41,19,27.27H45C37.43,62.3,35.71,60.29,31.81,55.12c-1.93-2.56-3.75-5-5.92-8.19-1.3-1.92-3.66-3-5.56-3.85s-3.55-1.61-3.84-3.37a5.13,5.13,0,0,1,.32-3v0C16.8,36.63,13,27,21.69,22a2.37,2.37,0,0,1,3.54,1.64c.32,1.75.79,1.93,2.53,2.59a17.22,17.22,0,0,1,2.62,1.17c.34-.92.68-2.24.93-3.14.84-3.18,1.56-5.92,3.54-6.85,5.78-2.69,11.47-6.13,11.91-15.72C46.76.3,47.1,0,48.08,0c8.48,0,14.26,7.9,17.17,11.84,7.46-1,17.54.47,19.11,3.36l-3.35,8c2,.35,3.91,2.36,3.77,4.3-13.23-1.61-17.34,5.63-16.67,9.63-1.16,1-5.43,7.23-.07,13.16,2.83,3.14,8.66,6.69,13.47,4.48.78.43.78,7.2.78,7.2,1.52.44,4.28-.43,4.28-.43l5.37,10.6M65.17,35.66ZM20.91,24.42Z"/><rect class="cls-1" width="110" height="75"/></g></g></svg>