<svg xmlns="http://www.w3.org/2000/svg" viewBox="0 0 110 75"><defs><style>.cls-1{fill:none;}</style></defs><g id="Layer_2" data-name="Layer 2"><g id="header_footer" data-name="header/footer"><path d="M42.53,75c-.38,0-10.48-4.92-10.72-5.58L14,20.06c-1.21-3.34-.36-4.24,3-5.46L55.83.55c3-1.08,4.51-.79,5.82,2.84l18.13,49L73.49,65.67,85.36,71.1c2-3.76,1.21-6.08-1.76-7.69-1.62-.88-11.78-5.8-11.78-5.8l3.67-8.44L59.93,5.94C59.06,4.21,58,3.38,55.61,4.21L47,7.67c.6,1.56.84,8.39-5.37,10.73C34.74,21,29.85,16.85,28.8,14.58,24,16,21.94,19.71,26.28,32.22c3.26,9.38,7.84,22.1,12.36,35.39l5,2.34a2.65,2.65,0,0,1-1.12,5Z"/><path d="M44.27,50.32a1.65,1.65,0,0,1,0-.44l5-23.06a2.08,2.08,0,0,1,4.07.88l-5,23.06a2.08,2.08,0,0,1-4.11-.44Z"/><path d="M41.83,35.1a1.89,1.89,0,0,1-3.44,1.09A1.84,1.84,0,0,1,38,35.1,1.89,1.89,0,0,1,41.48,34a1.83,1.83,0,0,1,.35,1.08m3,0h0a4.92,4.92,0,1,0-9.83,0,4.82,4.82,0,0,0,.89,2.82,4.91,4.91,0,0,0,8.94-2.82Z"/><path d="M59.62,42.5a1.89,1.89,0,1,1-.34-1.09,1.89,1.89,0,0,1,.34,1.09m3,0a4.92,4.92,0,0,0-9.84,0,4.92,4.92,0,0,0,4.06,4.84,4.92,4.92,0,0,0,5.78-4.84Z"/><path d="M52.06,71.57A1.89,1.89,0,0,1,49,69.43l.8-1.71a1.89,1.89,0,1,1,3.43,1.59L52.44,71A1.6,1.6,0,0,1,52.06,71.57Z"/><path d="M60.26,68.43a1.87,1.87,0,0,1-2.13.38,1.89,1.89,0,0,1-.92-2.51l.8-1.72a1.89,1.89,0,0,1,3.43,1.6l-.8,1.72A1.66,1.66,0,0,1,60.26,68.43Z"/><path d="M68.47,65.3a1.9,1.9,0,0,1-3.06-2.14l.8-1.71a1.89,1.89,0,1,1,3.43,1.6l-.8,1.71A1.73,1.73,0,0,1,68.47,65.3Z"/><rect class="cls-1" width="110" height="75"/></g></g></svg>