<?xml version="1.0" standalone="no"?>
<!DOCTYPE svg PUBLIC "-//W3C//DTD SVG 20010904//EN"
 "http://www.w3.org/TR/2001/REC-SVG-20010904/DTD/svg10.dtd">
<svg version="1.0" xmlns="http://www.w3.org/2000/svg"
 width="300.000000pt" height="117.000000pt" viewBox="0 0 300.000000 117.000000"
 preserveAspectRatio="xMidYMid meet">
<metadata>
Created by potrace 1.10, written by Peter Selinger 2001-2011
</metadata>
<g transform="translate(0.000000,117.000000) scale(0.100000,-0.100000)"
fill="#000000" stroke="none">
<path d="M1259 1050 c-1 -3 -1 -8 0 -12 0 -5 -8 -8 -20 -8 -35 0 -49 -24 -49
-85 0 -62 14 -85 52 -86 22 0 22 -1 3 -9 -15 -6 -7 -9 30 -9 36 -1 46 2 35 9
-13 8 -12 10 3 10 25 0 47 24 47 49 0 12 4 21 9 21 5 0 11 9 14 20 6 22 -8 28
-17 8 -3 -7 -5 2 -3 20 2 21 -1 32 -10 32 -7 0 -13 6 -13 14 0 9 -7 12 -20 9
-14 -4 -20 0 -20 10 0 14 -38 21 -41 7z m70 -54 c12 -15 16 -56 8 -82 -9 -25
-58 -37 -94 -23 -19 7 -23 16 -23 53 0 33 5 48 20 59 22 15 74 11 89 -7z"/>
<path d="M2330 1045 c0 -8 -9 -15 -20 -15 -11 0 -20 -4 -20 -10 0 -5 -17 -10
-37 -11 -31 0 -34 -2 -18 -9 14 -6 3 -9 -40 -9 -43 -1 -56 -4 -45 -11 11 -7 5
-10 -23 -10 -34 0 -38 -3 -35 -22 3 -20 8 -22 46 -20 l42 4 0 -381 0 -381 -22
0 c-19 0 -20 -2 -8 -10 11 -7 5 -10 -22 -10 -31 0 -38 -4 -38 -20 0 -19 7 -20
175 -20 168 0 175 1 175 20 0 16 -7 20 -36 20 -21 0 -33 4 -29 10 3 5 -1 10
-10 10 -14 0 -16 16 -14 120 1 97 4 120 16 120 8 0 12 -4 8 -9 -3 -5 2 -16 10
-24 8 -9 15 -21 15 -27 0 -6 5 -8 10 -5 6 4 10 -6 10 -22 0 -22 2 -25 10 -13
8 12 10 11 10 -7 0 -13 5 -23 10 -23 6 0 10 -10 10 -22 0 -19 2 -20 10 -8 8
12 10 9 10 -13 0 -16 4 -26 10 -22 6 3 10 -1 10 -9 0 -9 7 -16 15 -16 8 0 15
-9 15 -20 0 -15 -7 -20 -25 -20 -18 0 -25 -5 -25 -20 0 -19 7 -20 165 -20 158
0 165 1 165 20 0 15 -7 20 -27 20 -22 0 -25 2 -13 10 11 7 7 10 -17 10 -29 0
-33 3 -34 28 0 24 -1 25 -9 7 -8 -19 -9 -19 -9 3 -1 25 -22 52 -41 52 -6 0 -8
5 -5 10 3 6 -2 10 -12 10 -12 0 -14 3 -6 8 9 6 7 12 -7 22 -11 8 -20 26 -21
40 0 23 -1 23 -9 5 -7 -17 -9 -16 -9 10 -1 23 -4 27 -11 15 -8 -12 -10 -11
-10 8 0 12 -4 22 -10 22 -5 0 -10 7 -10 16 0 18 -23 44 -39 44 -6 0 -11 11
-11 25 0 16 6 25 16 25 8 0 12 5 9 10 -3 6 -1 10 5 10 14 0 80 66 80 80 0 5 6
9 13 8 6 -2 11 3 9 10 -1 7 9 12 25 12 22 0 25 2 13 10 -11 7 -7 10 18 10 17
0 32 5 32 10 0 6 15 10 33 10 26 0 33 4 34 20 2 19 -4 20 -153 20 -147 0 -154
-1 -154 -20 0 -14 7 -20 21 -20 25 0 49 -23 49 -47 0 -15 -2 -16 -10 -3 -8 13
-10 12 -10 -2 0 -10 -6 -18 -12 -18 -9 0 -8 -4 2 -10 13 -8 12 -10 -3 -10 -10
0 -15 -4 -12 -10 3 -5 1 -10 -5 -10 -14 0 -80 -66 -80 -80 0 -6 -4 -8 -10 -5
-5 3 -10 1 -10 -5 0 -14 -25 -40 -39 -40 -8 0 -11 83 -11 266 0 223 2 268 15
280 8 9 15 20 15 25 0 5 -7 9 -15 9 -8 0 -15 7 -15 15 0 8 -4 15 -10 15 -5 0
-10 -7 -10 -15z m-2 -321 c0 -184 4 -280 11 -287 7 -7 7 -14 0 -23 -7 -8 -9
-62 -7 -144 l3 -130 -79 0 c-75 0 -78 1 -64 18 25 27 30 87 34 421 l4 315 -26
33 c-22 29 -23 33 -7 34 10 1 22 1 27 0 4 -1 14 3 21 9 12 10 56 26 77 29 3 1
6 -123 6 -275z m-131 -276 c-1 -84 -3 -16 -3 152 0 168 2 236 3 153 2 -84 2
-222 0 -305z m463 245 c3 -2 -3 -9 -12 -14 -9 -5 -23 -15 -30 -22 -53 -49 -54
-49 -54 -14 0 18 -4 39 -8 48 -6 14 0 15 46 11 29 -2 55 -6 58 -9z m-136 -279
c14 -14 26 -31 26 -38 0 -8 11 -24 25 -37 13 -13 25 -29 25 -35 0 -6 11 -24
25 -40 14 -16 25 -33 25 -37 0 -4 19 -26 42 -47 l41 -40 -95 0 c-89 0 -96 1
-91 19 6 23 -19 72 -65 129 -19 23 -32 42 -28 42 7 0 -8 18 -51 65 l-28 30 39
38 c22 20 43 37 48 37 4 0 7 3 7 8 -5 31 5 18 15 -22 8 -26 25 -59 40 -72z"/>
<path d="M90 990 c0 -18 7 -20 68 -20 47 0 63 -3 52 -10 -12 -8 -10 -10 10
-10 l25 0 0 -390 0 -390 -35 0 c-26 0 -31 -3 -20 -10 11 -7 -2 -10 -42 -10
-51 0 -58 -2 -58 -20 0 -19 7 -20 250 -20 243 0 250 1 250 20 0 18 -7 20 -57
21 -44 1 -52 3 -33 9 21 7 19 8 -17 9 l-43 1 0 185 0 185 46 0 c27 0 43 -4 39
-10 -3 -5 1 -10 9 -10 10 0 16 -9 16 -25 0 -14 5 -25 10 -25 6 0 10 -9 10 -20
0 -11 5 -20 10 -20 6 0 10 -15 10 -32 0 -25 3 -29 10 -18 7 11 10 5 11 -25 0
-32 2 -36 9 -20 8 18 9 17 9 -7 1 -16 6 -28 11 -28 6 0 10 -9 10 -20 0 -11 6
-20 13 -20 7 0 13 -12 12 -28 0 -16 5 -26 13 -25 7 2 12 -8 12 -27 0 -17 5
-30 10 -30 6 0 10 -9 10 -20 0 -20 7 -20 365 -20 358 0 365 0 365 20 0 16 -7
20 -37 21 -31 0 -34 2 -18 9 18 8 17 9 -8 9 l-28 1 1 278 c0 152 0 283 0 290
0 6 -10 12 -22 11 -22 0 -22 -1 -3 -9 18 -8 17 -9 -7 -9 -16 -1 -28 -5 -28
-11 0 -5 -17 -10 -37 -11 -31 0 -34 -2 -18 -9 15 -6 8 -9 -27 -9 -27 -1 -48
-5 -48 -11 0 -5 -20 -10 -45 -10 -41 0 -45 -2 -45 -25 0 -20 5 -25 25 -25 16
0 25 6 25 15 0 8 5 15 10 15 6 0 10 -6 10 -12 0 -9 4 -8 10 2 8 13 10 12 10
-3 0 -10 5 -15 10 -12 7 4 10 -74 9 -227 0 -139 -4 -225 -9 -213 -5 11 -9 14
-9 7 -2 -32 -29 -42 -113 -42 -57 0 -78 3 -68 10 11 7 5 10 -25 10 -30 0 -36
3 -25 10 13 9 13 10 0 11 -8 1 -18 1 -22 0 -5 0 -8 6 -8 15 0 8 -4 12 -10 9
-6 -4 -10 6 -10 22 0 22 -2 25 -10 13 -8 -12 -10 -11 -10 8 0 12 -6 22 -14 22
-9 0 -12 7 -9 20 4 14 0 20 -11 20 -9 0 -15 6 -13 13 1 6 -4 11 -10 10 -8 -2
-13 7 -13 22 0 14 -4 25 -10 25 -5 0 -10 10 -10 23 0 18 -2 19 -10 7 -7 -11
-10 -6 -10 20 0 26 -3 31 -10 20 -8 -12 -10 -9 -10 13 0 16 -4 26 -10 22 -6
-3 -10 1 -10 9 0 9 -4 16 -9 16 -5 0 -11 9 -14 20 -4 16 0 20 19 20 13 0 24 5
24 10 0 6 9 10 20 10 14 0 20 7 20 23 0 18 2 19 10 7 7 -11 10 -12 10 -2 0 7
6 20 13 27 36 41 37 43 19 48 -16 4 -16 5 1 6 11 1 17 9 17 24 0 18 2 19 10 7
7 -10 10 10 10 65 0 55 -3 75 -10 65 -7 -11 -10 -5 -10 23 0 23 -4 36 -10 32
-5 -3 -10 1 -10 9 0 9 -7 16 -16 16 -8 0 -12 5 -9 10 3 6 -2 10 -12 10 -15 0
-16 2 -3 10 11 7 6 10 -20 10 -26 0 -31 3 -20 10 10 7 -9 10 -65 11 -74 2 -76
3 -30 9 28 4 -88 8 -257 8 -302 2 -308 2 -308 -18z m360 -10 c13 -1 13 -2 0
-7 -35 -14 -38 -30 -40 -189 -3 -173 -1 -191 20 -204 12 -7 11 -12 -3 -28 -16
-17 -18 -41 -17 -197 2 -179 4 -194 40 -208 8 -3 -39 -6 -105 -6 -108 -1 -117
0 -98 14 11 8 24 29 28 47 11 47 11 621 1 693 -5 34 -15 64 -24 69 -26 15 3
21 95 19 48 -1 95 -2 103 -3z m212 -12 c73 -2 91 -12 139 -78 52 -70 30 -205
-42 -264 -15 -11 -41 -32 -58 -46 -17 -14 -31 -32 -31 -41 0 -8 16 -38 35 -65
19 -27 35 -55 35 -61 0 -7 4 -13 8 -13 4 0 13 -12 20 -27 27 -59 37 -73 50
-68 7 3 11 1 7 -4 -13 -22 72 -133 115 -150 19 -7 -2 -10 -87 -10 -69 -1 -113
3 -113 9 0 6 0 12 -1 15 0 2 -23 50 -50 106 -49 100 -65 134 -69 154 -1 6 -7
17 -14 25 -7 8 -21 33 -31 55 -10 22 -25 45 -34 52 -14 11 -11 12 15 13 17 0
37 7 44 15 7 8 17 15 22 15 15 0 57 53 58 73 0 9 5 17 10 17 6 0 10 33 10 80
0 62 -5 87 -21 117 -26 45 -67 83 -92 83 -10 0 -15 5 -12 10 4 7 12 7 25 0 10
-6 38 -11 62 -12z m-66 -32 c8 -8 14 -21 15 -28 0 -7 4 -4 9 7 7 17 9 16 9
-10 1 -23 4 -27 11 -15 8 12 10 11 10 -7 0 -15 6 -23 18 -24 14 0 14 -2 -3 -9
-13 -6 -15 -9 -5 -9 12 -1 15 -15 15 -66 0 -51 -3 -65 -15 -65 -13 0 -13 -1 0
-10 10 -6 11 -10 3 -10 -7 0 -13 -7 -13 -16 0 -8 -4 -12 -10 -9 -6 4 -10 -6
-11 -22 0 -25 -1 -26 -9 -8 -8 18 -9 18 -9 2 -1 -10 -5 -15 -11 -12 -5 3 -10
-1 -10 -9 0 -13 -14 -16 -75 -16 l-75 0 0 175 0 175 71 0 c48 0 75 -5 85 -14z
m736 -328 c-3 -51 -6 -163 -6 -248 -1 -133 2 -160 17 -183 9 -14 17 -29 17
-32 0 -3 -39 -5 -87 -5 -83 0 -85 1 -70 18 15 16 17 48 17 243 0 166 -3 228
-12 237 -10 10 -10 15 2 22 8 6 21 8 28 5 7 -2 27 4 45 15 53 31 54 29 49 -72z
m-1065 -75 c-2 -21 -4 -6 -4 32 0 39 2 55 4 38 2 -18 2 -50 0 -70z m1080 -230
c-2 -37 -3 -9 -3 62 0 72 1 102 3 68 2 -34 2 -93 0 -130z m-1080 95 c-3 -8 -6
-5 -6 6 -1 11 2 17 5 13 3 -3 4 -12 1 -19z"/>
<path d="M1173 945 c0 -27 2 -38 4 -22 2 15 2 37 0 50 -2 12 -4 0 -4 -28z"/>
<path d="M1805 740 c35 -6 31 -7 -30 -9 -49 -1 -66 -4 -55 -11 11 -7 5 -10
-25 -11 -32 0 -36 -2 -20 -9 18 -8 17 -9 -8 -9 -16 -1 -26 -5 -22 -11 3 -5 -1
-10 -9 -10 -9 0 -16 -7 -16 -16 0 -8 -4 -12 -10 -9 -6 4 -10 -6 -11 -22 0 -25
-1 -26 -9 -8 -8 18 -9 17 -9 -7 -1 -16 -5 -28 -11 -28 -5 0 -10 -15 -10 -32 0
-25 -3 -29 -10 -18 -7 10 -10 -8 -11 -60 -1 -41 -3 -67 -6 -57 -8 29 -20 19
-17 -15 3 -45 4 -46 15 -23 6 14 8 -1 6 -48 -1 -48 2 -67 11 -67 6 0 12 -12
12 -26 0 -14 4 -23 10 -19 6 4 10 -6 10 -22 0 -22 2 -25 10 -13 8 12 10 11 10
-7 0 -17 6 -23 23 -23 18 0 19 -2 7 -10 -11 -7 -5 -10 25 -11 32 0 36 -2 20
-9 -14 -6 -3 -9 40 -10 46 -2 54 -4 35 -10 -18 -6 -9 -8 35 -8 44 0 53 2 35 8
-20 6 -14 8 28 9 28 1 52 6 52 11 0 6 12 10 28 11 24 0 25 1 7 9 -18 8 -17 9
8 9 15 1 27 6 27 11 0 6 7 10 16 10 8 0 22 6 30 14 16 16 19 76 4 76 -5 0 -10
-4 -10 -10 0 -5 -11 -10 -25 -10 -15 0 -23 -5 -20 -12 4 -10 -16 -13 -82 -12
-61 1 -87 4 -85 12 1 7 -3 12 -8 12 -18 0 -60 48 -60 67 0 15 -2 16 -10 3 -7
-11 -10 2 -11 45 -1 44 -3 53 -9 35 -5 -17 -9 7 -11 73 -2 53 -1 97 3 97 4 0
9 -12 11 -27 2 -16 5 1 6 37 2 47 5 59 11 45 8 -19 9 -19 9 3 1 13 12 34 26
47 20 21 34 25 80 25 59 0 85 -14 85 -47 0 -14 2 -15 9 -4 12 19 23 -2 17 -34
-3 -18 0 -25 11 -25 11 0 14 -8 11 -30 -4 -26 -1 -30 19 -30 20 0 23 5 24 43
1 36 2 38 9 17 6 -18 8 -4 10 50 1 52 4 69 10 55 8 -19 9 -19 9 3 1 18 -4 22
-29 22 -16 0 -30 5 -30 10 0 6 -26 10 -57 11 -44 1 -52 3 -33 9 17 5 -1 8 -55
8 -64 -1 -72 -2 -40 -8z m166 -48 c30 -12 43 -53 24 -78 -10 -15 -15 -11 -34
30 -13 25 -29 46 -37 46 -9 0 -13 4 -10 9 7 10 19 9 57 -7z m-247 -10 c-6 -4
-14 -17 -18 -29 -4 -13 -12 -23 -17 -23 -6 0 -8 -4 -4 -9 3 -5 1 -12 -5 -16
-6 -4 -8 -11 -5 -16 4 -5 2 -9 -3 -9 -5 0 -10 -48 -11 -108 -2 -104 -1 -110
31 -169 22 -40 48 -73 77 -94 41 -29 48 -31 108 -26 35 2 62 3 59 0 -2 -3 -7
-4 -10 -4 -3 0 -17 -10 -31 -23 -17 -16 -34 -23 -50 -20 -13 2 -26 0 -29 -4
-8 -13 -96 -2 -131 15 -30 15 -104 88 -106 104 -1 5 -2 13 -3 18 0 5 -4 13 -8
17 -12 12 -9 209 3 221 6 6 12 17 13 24 6 31 21 55 47 80 15 15 25 30 22 33
-4 3 1 6 10 6 9 0 22 9 29 20 7 11 20 20 28 20 10 0 11 -3 4 -8z"/>
<path d="M2462 710 c0 -14 2 -19 5 -12 2 6 2 18 0 25 -3 6 -5 1 -5 -13z"/>
<path d="M2041 214 c0 -11 3 -14 6 -6 3 7 2 16 -1 19 -3 4 -6 -2 -5 -13z"/>
<path d="M1462 130 c0 -14 2 -19 5 -12 2 6 2 18 0 25 -3 6 -5 1 -5 -13z"/>
<path d="M2462 130 c0 -14 2 -19 5 -12 2 6 2 18 0 25 -3 6 -5 1 -5 -13z"/>
</g>
</svg>
