<svg xmlns="http://www.w3.org/2000/svg" viewBox="0 0 110 75"><defs><style>.cls-1{fill:none;}</style></defs><g id="Layer_2" data-name="Layer 2"><g id="header_footer" data-name="header/footer"><path d="M48.14,50.54c-1.83,2.32-4.48,7.2.44,10.09C49.3,56,51.39,53.31,48.14,50.54Z"/><path d="M55.16,72.66c1.07-3,4-10.95-3.42-15.57C51,63.56,48.74,69.23,55.16,72.66Z"/><path d="M48.79,69.37a19.24,19.24,0,0,1-6.1-1.61c-1.29,9.55,10.24,7.14,10.84,6.49C51.89,73.13,49.9,71.91,48.79,69.37Z"/><path d="M78.33,21.6c-1-2.54-4.16-11-8.53-15.56a3,3,0,0,0,.51-1.29C65.92-.18,57-1.29,46.25,1.5,28.89,6,24.76,23.87,24.35,26.47,22.39,39,28.86,51,35.62,56.19c4.45,10.87,12.08,10.6,12.71,10.7a15.28,15.28,0,0,1,0-4.06c-6.56-2.2-6.21-10.58-.64-14.83.74-.56,6.65-4.8,1.08-10.43-4.85-4.89.58-11.3,6.81-8.16.22-10.81,9-16.22,12-20.29,4.27,3.56,6.91,11.86,8.43,15.1.71,1.5,5.13,3.26,5.57,5.06.57,2.34-1.24,4.26-2.36,5.25C80.33,40.7,82.69,53,79.3,53.6c-10.88,2-21,.76-26.53-5.57.15-1.16,1.22-2.28,1.51-2,7.65,8,25.28,5.6,28.32,3.28.77-.58,1.52-2.33-.5-13.86.81-.7,3.46-4.82,2.74-7.53C84.31,25.93,79,23.19,78.33,21.6Z"/><path d="M60.57,68.35c0-5.69,4.61-11.84,6.2-12.3a12,12,0,0,0,2.1.17,15.61,15.61,0,0,0-5.43,12.13Z"/><rect class="cls-1" width="110" height="75"/></g></g></svg>